G04 #@! TF.GenerationSoftware,KiCad,Pcbnew,(5.1.10)-1*
G04 #@! TF.CreationDate,2022-02-18T16:50:56-06:00*
G04 #@! TF.ProjectId,MainBoard,4d61696e-426f-4617-9264-2e6b69636164,rev?*
G04 #@! TF.SameCoordinates,Original*
G04 #@! TF.FileFunction,Copper,L2,Inr*
G04 #@! TF.FilePolarity,Positive*
%FSLAX46Y46*%
G04 Gerber Fmt 4.6, Leading zero omitted, Abs format (unit mm)*
G04 Created by KiCad (PCBNEW (5.1.10)-1) date 2022-02-18 16:50:56*
%MOMM*%
%LPD*%
G01*
G04 APERTURE LIST*
G04 #@! TA.AperFunction,ComponentPad*
%ADD10C,2.000000*%
G04 #@! TD*
G04 #@! TA.AperFunction,ComponentPad*
%ADD11C,7.620000*%
G04 #@! TD*
G04 #@! TA.AperFunction,ComponentPad*
%ADD12C,1.980000*%
G04 #@! TD*
G04 #@! TA.AperFunction,ComponentPad*
%ADD13R,1.980000X1.980000*%
G04 #@! TD*
G04 #@! TA.AperFunction,Conductor*
%ADD14C,1.000000*%
G04 #@! TD*
G04 #@! TA.AperFunction,Conductor*
%ADD15C,2.000000*%
G04 #@! TD*
G04 APERTURE END LIST*
D10*
X58420000Y-57150000D03*
X58420000Y-54610000D03*
X58420000Y-52070000D03*
X58420000Y-49530000D03*
X58420000Y-46990000D03*
X58420000Y-44450000D03*
X58420000Y-41910000D03*
X58420000Y-39370000D03*
D11*
X67310000Y-43180000D03*
D12*
X53360000Y-33020000D03*
X50810000Y-33020000D03*
D13*
X48260000Y-33020000D03*
D12*
X25420000Y-33020000D03*
X22870000Y-33020000D03*
D13*
X20320000Y-33020000D03*
D11*
X67310000Y-52070000D03*
X67310000Y-60960000D03*
X67310000Y-72390000D03*
X55880000Y-72390000D03*
X44450000Y-72390000D03*
X33020000Y-72390000D03*
X21590000Y-72390000D03*
X68580000Y-21590000D03*
X57150000Y-21590000D03*
X45720000Y-21590000D03*
X34290000Y-21590000D03*
X22860000Y-21590000D03*
D10*
X52070000Y-55880000D03*
X52070000Y-53340000D03*
X52070000Y-50800000D03*
X52070000Y-48260000D03*
X52070000Y-45720000D03*
X52070000Y-58420000D03*
X52070000Y-43180000D03*
X49530000Y-58420000D03*
X49530000Y-43180000D03*
X46990000Y-58420000D03*
X46990000Y-43180000D03*
X44450000Y-58420000D03*
X44450000Y-43180000D03*
X41910000Y-58420000D03*
X41910000Y-43180000D03*
X39370000Y-58420000D03*
X39370000Y-43180000D03*
X36830000Y-58420000D03*
X36830000Y-43180000D03*
X34290000Y-58420000D03*
X34290000Y-43180000D03*
X31750000Y-58420000D03*
X31750000Y-43180000D03*
X29210000Y-58420000D03*
X29210000Y-43180000D03*
X26670000Y-58420000D03*
X26670000Y-43180000D03*
X24130000Y-58420000D03*
X24130000Y-43180000D03*
X21590000Y-58420000D03*
X21590000Y-43180000D03*
X19050000Y-58420000D03*
X19050000Y-43180000D03*
D12*
X67330000Y-33020000D03*
X64780000Y-33020000D03*
D13*
X62230000Y-33020000D03*
D12*
X39390000Y-33020000D03*
X36840000Y-33020000D03*
D13*
X34290000Y-33020000D03*
D14*
X44450000Y-43180000D02*
X44450000Y-41910000D01*
X55880000Y-44450000D02*
X58420000Y-44450000D01*
X52070000Y-40640000D02*
X55880000Y-44450000D01*
X45720000Y-40640000D02*
X52070000Y-40640000D01*
X44450000Y-41910000D02*
X45720000Y-40640000D01*
X36830000Y-58420000D02*
X36830000Y-64770000D01*
X68580000Y-40640000D02*
X67310000Y-43180000D01*
X74930000Y-46990000D02*
X68580000Y-40640000D01*
X74930000Y-66040000D02*
X74930000Y-46990000D01*
X73660000Y-67310000D02*
X74930000Y-66040000D01*
X39370000Y-67310000D02*
X73660000Y-67310000D01*
X36830000Y-64770000D02*
X39370000Y-67310000D01*
X39370000Y-58420000D02*
X39370000Y-62230000D01*
X69850000Y-52070000D02*
X67310000Y-52070000D01*
X72390000Y-54610000D02*
X69850000Y-52070000D01*
X72390000Y-64770000D02*
X72390000Y-54610000D01*
X71120000Y-66040000D02*
X72390000Y-64770000D01*
X43180000Y-66040000D02*
X71120000Y-66040000D01*
X39370000Y-62230000D02*
X43180000Y-66040000D01*
D15*
X25420000Y-33020000D02*
X25420000Y-35540000D01*
X19050000Y-36830000D02*
X19050000Y-43180000D01*
X24130000Y-36830000D02*
X19050000Y-36830000D01*
X25420000Y-35540000D02*
X24130000Y-36830000D01*
X53360000Y-33020000D02*
X53360000Y-35540000D01*
X52070000Y-36830000D02*
X38100000Y-36830000D01*
X53360000Y-35540000D02*
X52070000Y-36830000D01*
X39390000Y-33020000D02*
X39390000Y-35540000D01*
X38100000Y-36830000D02*
X24130000Y-36830000D01*
X39390000Y-35540000D02*
X38100000Y-36830000D01*
X34290000Y-33020000D02*
X34290000Y-27940000D01*
X34290000Y-27940000D02*
X20320000Y-27940000D01*
X20320000Y-33020000D02*
X20320000Y-27940000D01*
X20320000Y-27940000D02*
X20320000Y-24130000D01*
X20320000Y-24130000D02*
X22860000Y-21590000D01*
X48260000Y-33020000D02*
X48260000Y-27940000D01*
X48260000Y-27940000D02*
X34290000Y-27940000D01*
X67330000Y-33020000D02*
X67330000Y-35540000D01*
X66040000Y-36830000D02*
X52070000Y-36830000D01*
X67330000Y-35540000D02*
X66040000Y-36830000D01*
X62230000Y-33020000D02*
X62230000Y-27940000D01*
X62230000Y-27940000D02*
X48260000Y-27940000D01*
M02*
