G04 #@! TF.GenerationSoftware,KiCad,Pcbnew,(5.1.10)-1*
G04 #@! TF.CreationDate,2022-02-18T16:50:56-06:00*
G04 #@! TF.ProjectId,MainBoard,4d61696e-426f-4617-9264-2e6b69636164,rev?*
G04 #@! TF.SameCoordinates,Original*
G04 #@! TF.FileFunction,Legend,Top*
G04 #@! TF.FilePolarity,Positive*
%FSLAX46Y46*%
G04 Gerber Fmt 4.6, Leading zero omitted, Abs format (unit mm)*
G04 Created by KiCad (PCBNEW (5.1.10)-1) date 2022-02-18 16:50:56*
%MOMM*%
%LPD*%
G01*
G04 APERTURE LIST*
%ADD10C,0.150000*%
%ADD11C,0.250000*%
%ADD12C,0.300000*%
%ADD13C,0.120000*%
%ADD14C,0.200000*%
%ADD15C,0.254000*%
%ADD16C,2.000000*%
%ADD17C,7.620000*%
%ADD18C,1.980000*%
%ADD19R,1.980000X1.980000*%
G04 APERTURE END LIST*
D10*
X74382380Y-33829047D02*
X75096666Y-33829047D01*
X75239523Y-33876666D01*
X75334761Y-33971904D01*
X75382380Y-34114761D01*
X75382380Y-34210000D01*
X75382380Y-32876666D02*
X75382380Y-33352857D01*
X74382380Y-33352857D01*
X75287142Y-31971904D02*
X75334761Y-32019523D01*
X75382380Y-32162380D01*
X75382380Y-32257619D01*
X75334761Y-32400476D01*
X75239523Y-32495714D01*
X75144285Y-32543333D01*
X74953809Y-32590952D01*
X74810952Y-32590952D01*
X74620476Y-32543333D01*
X74525238Y-32495714D01*
X74430000Y-32400476D01*
X74382380Y-32257619D01*
X74382380Y-32162380D01*
X74430000Y-32019523D01*
X74477619Y-31971904D01*
X74382380Y-31257619D02*
X75096666Y-31257619D01*
X75239523Y-31305238D01*
X75334761Y-31400476D01*
X75382380Y-31543333D01*
X75382380Y-31638571D01*
X75382380Y-30305238D02*
X75382380Y-30781428D01*
X74382380Y-30781428D01*
X75287142Y-29400476D02*
X75334761Y-29448095D01*
X75382380Y-29590952D01*
X75382380Y-29686190D01*
X75334761Y-29829047D01*
X75239523Y-29924285D01*
X75144285Y-29971904D01*
X74953809Y-30019523D01*
X74810952Y-30019523D01*
X74620476Y-29971904D01*
X74525238Y-29924285D01*
X74430000Y-29829047D01*
X74382380Y-29686190D01*
X74382380Y-29590952D01*
X74430000Y-29448095D01*
X74477619Y-29400476D01*
X74382380Y-28686190D02*
X75096666Y-28686190D01*
X75239523Y-28733809D01*
X75334761Y-28829047D01*
X75382380Y-28971904D01*
X75382380Y-29067142D01*
X75382380Y-27733809D02*
X75382380Y-28210000D01*
X74382380Y-28210000D01*
X75287142Y-26829047D02*
X75334761Y-26876666D01*
X75382380Y-27019523D01*
X75382380Y-27114761D01*
X75334761Y-27257619D01*
X75239523Y-27352857D01*
X75144285Y-27400476D01*
X74953809Y-27448095D01*
X74810952Y-27448095D01*
X74620476Y-27400476D01*
X74525238Y-27352857D01*
X74430000Y-27257619D01*
X74382380Y-27114761D01*
X74382380Y-27019523D01*
X74430000Y-26876666D01*
X74477619Y-26829047D01*
X74382380Y-26114761D02*
X75096666Y-26114761D01*
X75239523Y-26162380D01*
X75334761Y-26257619D01*
X75382380Y-26400476D01*
X75382380Y-26495714D01*
X75382380Y-25162380D02*
X75382380Y-25638571D01*
X74382380Y-25638571D01*
X75287142Y-24257619D02*
X75334761Y-24305238D01*
X75382380Y-24448095D01*
X75382380Y-24543333D01*
X75334761Y-24686190D01*
X75239523Y-24781428D01*
X75144285Y-24829047D01*
X74953809Y-24876666D01*
X74810952Y-24876666D01*
X74620476Y-24829047D01*
X74525238Y-24781428D01*
X74430000Y-24686190D01*
X74382380Y-24543333D01*
X74382380Y-24448095D01*
X74430000Y-24305238D01*
X74477619Y-24257619D01*
D11*
X61777619Y-40941904D02*
X62777619Y-40941904D01*
X62063333Y-41275238D01*
X62777619Y-41608571D01*
X61777619Y-41608571D01*
X62777619Y-42275238D02*
X62777619Y-42465714D01*
X62730000Y-42560952D01*
X62634761Y-42656190D01*
X62444285Y-42703809D01*
X62110952Y-42703809D01*
X61920476Y-42656190D01*
X61825238Y-42560952D01*
X61777619Y-42465714D01*
X61777619Y-42275238D01*
X61825238Y-42180000D01*
X61920476Y-42084761D01*
X62110952Y-42037142D01*
X62444285Y-42037142D01*
X62634761Y-42084761D01*
X62730000Y-42180000D01*
X62777619Y-42275238D01*
X61777619Y-43132380D02*
X62777619Y-43132380D01*
X62777619Y-43370476D01*
X62730000Y-43513333D01*
X62634761Y-43608571D01*
X62539523Y-43656190D01*
X62349047Y-43703809D01*
X62206190Y-43703809D01*
X62015714Y-43656190D01*
X61920476Y-43608571D01*
X61825238Y-43513333D01*
X61777619Y-43370476D01*
X61777619Y-43132380D01*
X62301428Y-44132380D02*
X62301428Y-44465714D01*
X61777619Y-44608571D02*
X61777619Y-44132380D01*
X62777619Y-44132380D01*
X62777619Y-44608571D01*
X62063333Y-44989523D02*
X62063333Y-45465714D01*
X61777619Y-44894285D02*
X62777619Y-45227619D01*
X61777619Y-45560952D01*
X61777619Y-49760476D02*
X62777619Y-49760476D01*
X62063333Y-50093809D01*
X62777619Y-50427142D01*
X61777619Y-50427142D01*
X62777619Y-51093809D02*
X62777619Y-51284285D01*
X62730000Y-51379523D01*
X62634761Y-51474761D01*
X62444285Y-51522380D01*
X62110952Y-51522380D01*
X61920476Y-51474761D01*
X61825238Y-51379523D01*
X61777619Y-51284285D01*
X61777619Y-51093809D01*
X61825238Y-50998571D01*
X61920476Y-50903333D01*
X62110952Y-50855714D01*
X62444285Y-50855714D01*
X62634761Y-50903333D01*
X62730000Y-50998571D01*
X62777619Y-51093809D01*
X61777619Y-51950952D02*
X62777619Y-51950952D01*
X62777619Y-52189047D01*
X62730000Y-52331904D01*
X62634761Y-52427142D01*
X62539523Y-52474761D01*
X62349047Y-52522380D01*
X62206190Y-52522380D01*
X62015714Y-52474761D01*
X61920476Y-52427142D01*
X61825238Y-52331904D01*
X61777619Y-52189047D01*
X61777619Y-51950952D01*
X62301428Y-52950952D02*
X62301428Y-53284285D01*
X61777619Y-53427142D02*
X61777619Y-52950952D01*
X62777619Y-52950952D01*
X62777619Y-53427142D01*
X62301428Y-54189047D02*
X62253809Y-54331904D01*
X62206190Y-54379523D01*
X62110952Y-54427142D01*
X61968095Y-54427142D01*
X61872857Y-54379523D01*
X61825238Y-54331904D01*
X61777619Y-54236666D01*
X61777619Y-53855714D01*
X62777619Y-53855714D01*
X62777619Y-54189047D01*
X62730000Y-54284285D01*
X62682380Y-54331904D01*
X62587142Y-54379523D01*
X62491904Y-54379523D01*
X62396666Y-54331904D01*
X62349047Y-54284285D01*
X62301428Y-54189047D01*
X62301428Y-53855714D01*
X62301428Y-57388571D02*
X62253809Y-57531428D01*
X62206190Y-57579047D01*
X62110952Y-57626666D01*
X61968095Y-57626666D01*
X61872857Y-57579047D01*
X61825238Y-57531428D01*
X61777619Y-57436190D01*
X61777619Y-57055238D01*
X62777619Y-57055238D01*
X62777619Y-57388571D01*
X62730000Y-57483809D01*
X62682380Y-57531428D01*
X62587142Y-57579047D01*
X62491904Y-57579047D01*
X62396666Y-57531428D01*
X62349047Y-57483809D01*
X62301428Y-57388571D01*
X62301428Y-57055238D01*
X61777619Y-58626666D02*
X62253809Y-58293333D01*
X61777619Y-58055238D02*
X62777619Y-58055238D01*
X62777619Y-58436190D01*
X62730000Y-58531428D01*
X62682380Y-58579047D01*
X62587142Y-58626666D01*
X62444285Y-58626666D01*
X62349047Y-58579047D01*
X62301428Y-58531428D01*
X62253809Y-58436190D01*
X62253809Y-58055238D01*
X62063333Y-59007619D02*
X62063333Y-59483809D01*
X61777619Y-58912380D02*
X62777619Y-59245714D01*
X61777619Y-59579047D01*
X61777619Y-59912380D02*
X62777619Y-59912380D01*
X61777619Y-60483809D02*
X62349047Y-60055238D01*
X62777619Y-60483809D02*
X62206190Y-59912380D01*
X62301428Y-60912380D02*
X62301428Y-61245714D01*
X61777619Y-61388571D02*
X61777619Y-60912380D01*
X62777619Y-60912380D01*
X62777619Y-61388571D01*
X61777619Y-63102857D02*
X61777619Y-62531428D01*
X61777619Y-62817142D02*
X62777619Y-62817142D01*
X62634761Y-62721904D01*
X62539523Y-62626666D01*
X62491904Y-62531428D01*
X62682380Y-63483809D02*
X62730000Y-63531428D01*
X62777619Y-63626666D01*
X62777619Y-63864761D01*
X62730000Y-63960000D01*
X62682380Y-64007619D01*
X62587142Y-64055238D01*
X62491904Y-64055238D01*
X62349047Y-64007619D01*
X61777619Y-63436190D01*
X61777619Y-64055238D01*
X62777619Y-64340952D02*
X61777619Y-64674285D01*
X62777619Y-65007619D01*
X70024285Y-66277619D02*
X70500476Y-66277619D01*
X70500476Y-67277619D01*
X69500476Y-67277619D02*
X69310000Y-67277619D01*
X69214761Y-67230000D01*
X69119523Y-67134761D01*
X69071904Y-66944285D01*
X69071904Y-66610952D01*
X69119523Y-66420476D01*
X69214761Y-66325238D01*
X69310000Y-66277619D01*
X69500476Y-66277619D01*
X69595714Y-66325238D01*
X69690952Y-66420476D01*
X69738571Y-66610952D01*
X69738571Y-66944285D01*
X69690952Y-67134761D01*
X69595714Y-67230000D01*
X69500476Y-67277619D01*
X68738571Y-67277619D02*
X68500476Y-66277619D01*
X68310000Y-66991904D01*
X68119523Y-66277619D01*
X67881428Y-67277619D01*
X67500476Y-66277619D02*
X67500476Y-67277619D01*
X67262380Y-67277619D01*
X67119523Y-67230000D01*
X67024285Y-67134761D01*
X66976666Y-67039523D01*
X66929047Y-66849047D01*
X66929047Y-66706190D01*
X66976666Y-66515714D01*
X67024285Y-66420476D01*
X67119523Y-66325238D01*
X67262380Y-66277619D01*
X67500476Y-66277619D01*
X65929047Y-66277619D02*
X66262380Y-66753809D01*
X66500476Y-66277619D02*
X66500476Y-67277619D01*
X66119523Y-67277619D01*
X66024285Y-67230000D01*
X65976666Y-67182380D01*
X65929047Y-67087142D01*
X65929047Y-66944285D01*
X65976666Y-66849047D01*
X66024285Y-66801428D01*
X66119523Y-66753809D01*
X66500476Y-66753809D01*
X65548095Y-66563333D02*
X65071904Y-66563333D01*
X65643333Y-66277619D02*
X65310000Y-67277619D01*
X64976666Y-66277619D01*
X64119523Y-67230000D02*
X64214761Y-67277619D01*
X64357619Y-67277619D01*
X64500476Y-67230000D01*
X64595714Y-67134761D01*
X64643333Y-67039523D01*
X64690952Y-66849047D01*
X64690952Y-66706190D01*
X64643333Y-66515714D01*
X64595714Y-66420476D01*
X64500476Y-66325238D01*
X64357619Y-66277619D01*
X64262380Y-66277619D01*
X64119523Y-66325238D01*
X64071904Y-66372857D01*
X64071904Y-66706190D01*
X64262380Y-66706190D01*
D12*
X58701428Y-65135238D02*
X58701428Y-67135238D01*
X58130000Y-67135238D01*
X57987142Y-67040000D01*
X57915714Y-66944761D01*
X57844285Y-66754285D01*
X57844285Y-66468571D01*
X57915714Y-66278095D01*
X57987142Y-66182857D01*
X58130000Y-66087619D01*
X58701428Y-66087619D01*
X57344285Y-67135238D02*
X56987142Y-65135238D01*
X56701428Y-66563809D01*
X56415714Y-65135238D01*
X56058571Y-67135238D01*
X55487142Y-65135238D02*
X55487142Y-67135238D01*
X54987142Y-65706666D01*
X54487142Y-67135238D01*
X54487142Y-65135238D01*
X53130000Y-66468571D02*
X53130000Y-65135238D01*
X53487142Y-67230476D02*
X53844285Y-65801904D01*
X52915714Y-65801904D01*
X47271428Y-65135238D02*
X47271428Y-67135238D01*
X46700000Y-67135238D01*
X46557142Y-67040000D01*
X46485714Y-66944761D01*
X46414285Y-66754285D01*
X46414285Y-66468571D01*
X46485714Y-66278095D01*
X46557142Y-66182857D01*
X46700000Y-66087619D01*
X47271428Y-66087619D01*
X45914285Y-67135238D02*
X45557142Y-65135238D01*
X45271428Y-66563809D01*
X44985714Y-65135238D01*
X44628571Y-67135238D01*
X44057142Y-65135238D02*
X44057142Y-67135238D01*
X43557142Y-65706666D01*
X43057142Y-67135238D01*
X43057142Y-65135238D01*
X42485714Y-67135238D02*
X41557142Y-67135238D01*
X42057142Y-66373333D01*
X41842857Y-66373333D01*
X41700000Y-66278095D01*
X41628571Y-66182857D01*
X41557142Y-65992380D01*
X41557142Y-65516190D01*
X41628571Y-65325714D01*
X41700000Y-65230476D01*
X41842857Y-65135238D01*
X42271428Y-65135238D01*
X42414285Y-65230476D01*
X42485714Y-65325714D01*
X35841428Y-65135238D02*
X35841428Y-67135238D01*
X35270000Y-67135238D01*
X35127142Y-67040000D01*
X35055714Y-66944761D01*
X34984285Y-66754285D01*
X34984285Y-66468571D01*
X35055714Y-66278095D01*
X35127142Y-66182857D01*
X35270000Y-66087619D01*
X35841428Y-66087619D01*
X34484285Y-67135238D02*
X34127142Y-65135238D01*
X33841428Y-66563809D01*
X33555714Y-65135238D01*
X33198571Y-67135238D01*
X32627142Y-65135238D02*
X32627142Y-67135238D01*
X32127142Y-65706666D01*
X31627142Y-67135238D01*
X31627142Y-65135238D01*
X30984285Y-66944761D02*
X30912857Y-67040000D01*
X30770000Y-67135238D01*
X30412857Y-67135238D01*
X30270000Y-67040000D01*
X30198571Y-66944761D01*
X30127142Y-66754285D01*
X30127142Y-66563809D01*
X30198571Y-66278095D01*
X31055714Y-65135238D01*
X30127142Y-65135238D01*
X24411428Y-65135238D02*
X24411428Y-67135238D01*
X23840000Y-67135238D01*
X23697142Y-67040000D01*
X23625714Y-66944761D01*
X23554285Y-66754285D01*
X23554285Y-66468571D01*
X23625714Y-66278095D01*
X23697142Y-66182857D01*
X23840000Y-66087619D01*
X24411428Y-66087619D01*
X23054285Y-67135238D02*
X22697142Y-65135238D01*
X22411428Y-66563809D01*
X22125714Y-65135238D01*
X21768571Y-67135238D01*
X21197142Y-65135238D02*
X21197142Y-67135238D01*
X20697142Y-65706666D01*
X20197142Y-67135238D01*
X20197142Y-65135238D01*
X18697142Y-65135238D02*
X19554285Y-65135238D01*
X19125714Y-65135238D02*
X19125714Y-67135238D01*
X19268571Y-66849523D01*
X19411428Y-66659047D01*
X19554285Y-66563809D01*
X65758571Y-28844761D02*
X65758571Y-26844761D01*
X66330000Y-26844761D01*
X66472857Y-26940000D01*
X66544285Y-27035238D01*
X66615714Y-27225714D01*
X66615714Y-27511428D01*
X66544285Y-27701904D01*
X66472857Y-27797142D01*
X66330000Y-27892380D01*
X65758571Y-27892380D01*
X67115714Y-26844761D02*
X67472857Y-28844761D01*
X67758571Y-27416190D01*
X68044285Y-28844761D01*
X68401428Y-26844761D01*
X68972857Y-28844761D02*
X68972857Y-26844761D01*
X69472857Y-28273333D01*
X69972857Y-26844761D01*
X69972857Y-28844761D01*
X71401428Y-26844761D02*
X70687142Y-26844761D01*
X70615714Y-27797142D01*
X70687142Y-27701904D01*
X70830000Y-27606666D01*
X71187142Y-27606666D01*
X71330000Y-27701904D01*
X71401428Y-27797142D01*
X71472857Y-27987619D01*
X71472857Y-28463809D01*
X71401428Y-28654285D01*
X71330000Y-28749523D01*
X71187142Y-28844761D01*
X70830000Y-28844761D01*
X70687142Y-28749523D01*
X70615714Y-28654285D01*
X56864285Y-26844761D02*
X56150000Y-26844761D01*
X56078571Y-27797142D01*
X56150000Y-27701904D01*
X56292857Y-27606666D01*
X56650000Y-27606666D01*
X56792857Y-27701904D01*
X56864285Y-27797142D01*
X56935714Y-27987619D01*
X56935714Y-28463809D01*
X56864285Y-28654285D01*
X56792857Y-28749523D01*
X56650000Y-28844761D01*
X56292857Y-28844761D01*
X56150000Y-28749523D01*
X56078571Y-28654285D01*
X57364285Y-26844761D02*
X57864285Y-28844761D01*
X58364285Y-26844761D01*
X44577142Y-26940000D02*
X44434285Y-26844761D01*
X44220000Y-26844761D01*
X44005714Y-26940000D01*
X43862857Y-27130476D01*
X43791428Y-27320952D01*
X43720000Y-27701904D01*
X43720000Y-27987619D01*
X43791428Y-28368571D01*
X43862857Y-28559047D01*
X44005714Y-28749523D01*
X44220000Y-28844761D01*
X44362857Y-28844761D01*
X44577142Y-28749523D01*
X44648571Y-28654285D01*
X44648571Y-27987619D01*
X44362857Y-27987619D01*
X45291428Y-28844761D02*
X45291428Y-26844761D01*
X46148571Y-28844761D01*
X46148571Y-26844761D01*
X46862857Y-28844761D02*
X46862857Y-26844761D01*
X47220000Y-26844761D01*
X47434285Y-26940000D01*
X47577142Y-27130476D01*
X47648571Y-27320952D01*
X47720000Y-27701904D01*
X47720000Y-27987619D01*
X47648571Y-28368571D01*
X47577142Y-28559047D01*
X47434285Y-28749523D01*
X47220000Y-28844761D01*
X46862857Y-28844761D01*
X33147142Y-26940000D02*
X33004285Y-26844761D01*
X32790000Y-26844761D01*
X32575714Y-26940000D01*
X32432857Y-27130476D01*
X32361428Y-27320952D01*
X32290000Y-27701904D01*
X32290000Y-27987619D01*
X32361428Y-28368571D01*
X32432857Y-28559047D01*
X32575714Y-28749523D01*
X32790000Y-28844761D01*
X32932857Y-28844761D01*
X33147142Y-28749523D01*
X33218571Y-28654285D01*
X33218571Y-27987619D01*
X32932857Y-27987619D01*
X33861428Y-28844761D02*
X33861428Y-26844761D01*
X34718571Y-28844761D01*
X34718571Y-26844761D01*
X35432857Y-28844761D02*
X35432857Y-26844761D01*
X35790000Y-26844761D01*
X36004285Y-26940000D01*
X36147142Y-27130476D01*
X36218571Y-27320952D01*
X36290000Y-27701904D01*
X36290000Y-27987619D01*
X36218571Y-28368571D01*
X36147142Y-28559047D01*
X36004285Y-28749523D01*
X35790000Y-28844761D01*
X35432857Y-28844761D01*
X20431428Y-28844761D02*
X19574285Y-28844761D01*
X20002857Y-28844761D02*
X20002857Y-26844761D01*
X19860000Y-27130476D01*
X19717142Y-27320952D01*
X19574285Y-27416190D01*
X21002857Y-27035238D02*
X21074285Y-26940000D01*
X21217142Y-26844761D01*
X21574285Y-26844761D01*
X21717142Y-26940000D01*
X21788571Y-27035238D01*
X21860000Y-27225714D01*
X21860000Y-27416190D01*
X21788571Y-27701904D01*
X20931428Y-28844761D01*
X21860000Y-28844761D01*
X22288571Y-26844761D02*
X22788571Y-28844761D01*
X23288571Y-26844761D01*
X23788571Y-28844761D02*
X23788571Y-26844761D01*
X24145714Y-26844761D01*
X24360000Y-26940000D01*
X24502857Y-27130476D01*
X24574285Y-27320952D01*
X24645714Y-27701904D01*
X24645714Y-27987619D01*
X24574285Y-28368571D01*
X24502857Y-28559047D01*
X24360000Y-28749523D01*
X24145714Y-28844761D01*
X23788571Y-28844761D01*
X26145714Y-28654285D02*
X26074285Y-28749523D01*
X25860000Y-28844761D01*
X25717142Y-28844761D01*
X25502857Y-28749523D01*
X25360000Y-28559047D01*
X25288571Y-28368571D01*
X25217142Y-27987619D01*
X25217142Y-27701904D01*
X25288571Y-27320952D01*
X25360000Y-27130476D01*
X25502857Y-26940000D01*
X25717142Y-26844761D01*
X25860000Y-26844761D01*
X26074285Y-26940000D01*
X26145714Y-27035238D01*
D13*
X59920000Y-37870000D02*
X59920000Y-58650000D01*
X59920000Y-58650000D02*
X56920000Y-58650000D01*
X56920000Y-58650000D02*
X56920000Y-37870000D01*
X56920000Y-37870000D02*
X59920000Y-37870000D01*
X59920000Y-40640000D02*
X56920000Y-40640000D01*
X58657258Y-64022500D02*
X58182742Y-64022500D01*
X58657258Y-62977500D02*
X58182742Y-62977500D01*
X58182742Y-60437500D02*
X58657258Y-60437500D01*
X58182742Y-61482500D02*
X58657258Y-61482500D01*
D14*
X45610000Y-29950000D02*
X45610000Y-33020000D01*
X56010000Y-29950000D02*
X45610000Y-29950000D01*
X56010000Y-34550000D02*
X56010000Y-29950000D01*
X17670000Y-29950000D02*
X17670000Y-33020000D01*
X28070000Y-29950000D02*
X17670000Y-29950000D01*
X28070000Y-34550000D02*
X28070000Y-29950000D01*
D13*
X17550000Y-53839999D02*
X17550000Y-59919999D01*
X17910000Y-53839999D02*
X17550000Y-53839999D01*
X17910000Y-47760000D02*
X17910000Y-53839999D01*
X17550000Y-47760000D02*
X17910000Y-47760000D01*
X17550000Y-41680000D02*
X17550000Y-47760000D01*
X53570000Y-41680001D02*
X17550000Y-41680000D01*
X53570000Y-59920000D02*
X53570000Y-41680001D01*
X17550000Y-59919999D02*
X53570000Y-59920000D01*
D14*
X59580000Y-29950000D02*
X59580000Y-33020000D01*
X69980000Y-29950000D02*
X59580000Y-29950000D01*
X69980000Y-34550000D02*
X69980000Y-29950000D01*
X31640000Y-29950000D02*
X31640000Y-33020000D01*
X42040000Y-29950000D02*
X31640000Y-29950000D01*
X42040000Y-34550000D02*
X42040000Y-29950000D01*
D13*
X43927500Y-37067258D02*
X43927500Y-36592742D01*
X44972500Y-37067258D02*
X44972500Y-36592742D01*
X46467500Y-38337258D02*
X46467500Y-37862742D01*
X47512500Y-38337258D02*
X47512500Y-37862742D01*
D10*
X56427619Y-38292738D02*
X55427619Y-38626071D01*
X56427619Y-38959404D01*
X56380000Y-41340357D02*
X56427619Y-41245119D01*
X56427619Y-41102261D01*
X56380000Y-40959404D01*
X56284761Y-40864166D01*
X56189523Y-40816547D01*
X55999047Y-40768928D01*
X55856190Y-40768928D01*
X55665714Y-40816547D01*
X55570476Y-40864166D01*
X55475238Y-40959404D01*
X55427619Y-41102261D01*
X55427619Y-41197500D01*
X55475238Y-41340357D01*
X55522857Y-41387976D01*
X55856190Y-41387976D01*
X55856190Y-41197500D01*
X55475238Y-42530833D02*
X55427619Y-42673690D01*
X55427619Y-42911785D01*
X55475238Y-43007023D01*
X55522857Y-43054642D01*
X55618095Y-43102261D01*
X55713333Y-43102261D01*
X55808571Y-43054642D01*
X55856190Y-43007023D01*
X55903809Y-42911785D01*
X55951428Y-42721309D01*
X55999047Y-42626071D01*
X56046666Y-42578452D01*
X56141904Y-42530833D01*
X56237142Y-42530833D01*
X56332380Y-42578452D01*
X56380000Y-42626071D01*
X56427619Y-42721309D01*
X56427619Y-42959404D01*
X56380000Y-43102261D01*
X55522857Y-44102261D02*
X55475238Y-44054642D01*
X55427619Y-43911785D01*
X55427619Y-43816547D01*
X55475238Y-43673690D01*
X55570476Y-43578452D01*
X55665714Y-43530833D01*
X55856190Y-43483214D01*
X55999047Y-43483214D01*
X56189523Y-43530833D01*
X56284761Y-43578452D01*
X56380000Y-43673690D01*
X56427619Y-43816547D01*
X56427619Y-43911785D01*
X56380000Y-44054642D01*
X56332380Y-44102261D01*
X55427619Y-45007023D02*
X55427619Y-44530833D01*
X56427619Y-44530833D01*
X55475238Y-46054642D02*
X55427619Y-46197500D01*
X55427619Y-46435595D01*
X55475238Y-46530833D01*
X55522857Y-46578452D01*
X55618095Y-46626071D01*
X55713333Y-46626071D01*
X55808571Y-46578452D01*
X55856190Y-46530833D01*
X55903809Y-46435595D01*
X55951428Y-46245119D01*
X55999047Y-46149880D01*
X56046666Y-46102261D01*
X56141904Y-46054642D01*
X56237142Y-46054642D01*
X56332380Y-46102261D01*
X56380000Y-46149880D01*
X56427619Y-46245119D01*
X56427619Y-46483214D01*
X56380000Y-46626071D01*
X55427619Y-47054642D02*
X56427619Y-47054642D01*
X56427619Y-47292738D01*
X56380000Y-47435595D01*
X56284761Y-47530833D01*
X56189523Y-47578452D01*
X55999047Y-47626071D01*
X55856190Y-47626071D01*
X55665714Y-47578452D01*
X55570476Y-47530833D01*
X55475238Y-47435595D01*
X55427619Y-47292738D01*
X55427619Y-47054642D01*
X55713333Y-48007023D02*
X55713333Y-48483214D01*
X55427619Y-47911785D02*
X56427619Y-48245119D01*
X55427619Y-48578452D01*
X55427619Y-50435595D02*
X56427619Y-50435595D01*
X55713333Y-50768928D01*
X56427619Y-51102261D01*
X55427619Y-51102261D01*
X55427619Y-51578452D02*
X56427619Y-51578452D01*
X56427619Y-51959404D01*
X56380000Y-52054642D01*
X56332380Y-52102261D01*
X56237142Y-52149880D01*
X56094285Y-52149880D01*
X55999047Y-52102261D01*
X55951428Y-52054642D01*
X55903809Y-51959404D01*
X55903809Y-51578452D01*
X56427619Y-52578452D02*
X55618095Y-52578452D01*
X55522857Y-52626071D01*
X55475238Y-52673690D01*
X55427619Y-52768928D01*
X55427619Y-52959404D01*
X55475238Y-53054642D01*
X55522857Y-53102261D01*
X55618095Y-53149880D01*
X56427619Y-53149880D01*
X56427619Y-54054642D02*
X56427619Y-53864166D01*
X56380000Y-53768928D01*
X56332380Y-53721309D01*
X56189523Y-53626071D01*
X55999047Y-53578452D01*
X55618095Y-53578452D01*
X55522857Y-53626071D01*
X55475238Y-53673690D01*
X55427619Y-53768928D01*
X55427619Y-53959404D01*
X55475238Y-54054642D01*
X55522857Y-54102261D01*
X55618095Y-54149880D01*
X55856190Y-54149880D01*
X55951428Y-54102261D01*
X55999047Y-54054642D01*
X56046666Y-53959404D01*
X56046666Y-53768928D01*
X55999047Y-53673690D01*
X55951428Y-53626071D01*
X55856190Y-53578452D01*
X56427619Y-54768928D02*
X56427619Y-54864166D01*
X56380000Y-54959404D01*
X56332380Y-55007023D01*
X56237142Y-55054642D01*
X56046666Y-55102261D01*
X55808571Y-55102261D01*
X55618095Y-55054642D01*
X55522857Y-55007023D01*
X55475238Y-54959404D01*
X55427619Y-54864166D01*
X55427619Y-54768928D01*
X55475238Y-54673690D01*
X55522857Y-54626071D01*
X55618095Y-54578452D01*
X55808571Y-54530833D01*
X56046666Y-54530833D01*
X56237142Y-54578452D01*
X56332380Y-54626071D01*
X56380000Y-54673690D01*
X56427619Y-54768928D01*
X56427619Y-56007023D02*
X56427619Y-55530833D01*
X55951428Y-55483214D01*
X55999047Y-55530833D01*
X56046666Y-55626071D01*
X56046666Y-55864166D01*
X55999047Y-55959404D01*
X55951428Y-56007023D01*
X55856190Y-56054642D01*
X55618095Y-56054642D01*
X55522857Y-56007023D01*
X55475238Y-55959404D01*
X55427619Y-55864166D01*
X55427619Y-55626071D01*
X55475238Y-55530833D01*
X55522857Y-55483214D01*
X56427619Y-56673690D02*
X56427619Y-56768928D01*
X56380000Y-56864166D01*
X56332380Y-56911785D01*
X56237142Y-56959404D01*
X56046666Y-57007023D01*
X55808571Y-57007023D01*
X55618095Y-56959404D01*
X55522857Y-56911785D01*
X55475238Y-56864166D01*
X55427619Y-56768928D01*
X55427619Y-56673690D01*
X55475238Y-56578452D01*
X55522857Y-56530833D01*
X55618095Y-56483214D01*
X55808571Y-56435595D01*
X56046666Y-56435595D01*
X56237142Y-56483214D01*
X56332380Y-56530833D01*
X56380000Y-56578452D01*
X56427619Y-56673690D01*
X57205714Y-64382380D02*
X57824761Y-64382380D01*
X57491428Y-64763333D01*
X57634285Y-64763333D01*
X57729523Y-64810952D01*
X57777142Y-64858571D01*
X57824761Y-64953809D01*
X57824761Y-65191904D01*
X57777142Y-65287142D01*
X57729523Y-65334761D01*
X57634285Y-65382380D01*
X57348571Y-65382380D01*
X57253333Y-65334761D01*
X57205714Y-65287142D01*
X58253333Y-65382380D02*
X58253333Y-64382380D01*
X58348571Y-65001428D02*
X58634285Y-65382380D01*
X58634285Y-64715714D02*
X58253333Y-65096666D01*
X59491428Y-64715714D02*
X59491428Y-65382380D01*
X59253333Y-64334761D02*
X59015238Y-65049047D01*
X59634285Y-65049047D01*
X57253333Y-59982380D02*
X56681904Y-59982380D01*
X56967619Y-59982380D02*
X56967619Y-58982380D01*
X56872380Y-59125238D01*
X56777142Y-59220476D01*
X56681904Y-59268095D01*
X57634285Y-59077619D02*
X57681904Y-59030000D01*
X57777142Y-58982380D01*
X58015238Y-58982380D01*
X58110476Y-59030000D01*
X58158095Y-59077619D01*
X58205714Y-59172857D01*
X58205714Y-59268095D01*
X58158095Y-59410952D01*
X57586666Y-59982380D01*
X58205714Y-59982380D01*
X58634285Y-59982380D02*
X58634285Y-58982380D01*
X59205714Y-59982380D02*
X58777142Y-59410952D01*
X59205714Y-58982380D02*
X58634285Y-59553809D01*
X60158095Y-59982380D02*
X59586666Y-59982380D01*
X59872380Y-59982380D02*
X59872380Y-58982380D01*
X59777142Y-59125238D01*
X59681904Y-59220476D01*
X59586666Y-59268095D01*
X73612380Y-44513333D02*
X73136190Y-44846666D01*
X73612380Y-45084761D02*
X72612380Y-45084761D01*
X72612380Y-44703809D01*
X72660000Y-44608571D01*
X72707619Y-44560952D01*
X72802857Y-44513333D01*
X72945714Y-44513333D01*
X73040952Y-44560952D01*
X73088571Y-44608571D01*
X73136190Y-44703809D01*
X73136190Y-45084761D01*
X73088571Y-44084761D02*
X73088571Y-43751428D01*
X73612380Y-43608571D02*
X73612380Y-44084761D01*
X72612380Y-44084761D01*
X72612380Y-43608571D01*
X73088571Y-42846666D02*
X73088571Y-43180000D01*
X73612380Y-43180000D02*
X72612380Y-43180000D01*
X72612380Y-42703809D01*
X72612380Y-42180000D02*
X72850476Y-42180000D01*
X72755238Y-42418095D02*
X72850476Y-42180000D01*
X72755238Y-41941904D01*
X73040952Y-42322857D02*
X72850476Y-42180000D01*
X73040952Y-42037142D01*
X72612380Y-41418095D02*
X72850476Y-41418095D01*
X72755238Y-41656190D02*
X72850476Y-41418095D01*
X72755238Y-41180000D01*
X73040952Y-41560952D02*
X72850476Y-41418095D01*
X73040952Y-41275238D01*
D15*
X49560238Y-36134523D02*
X49560238Y-34864523D01*
X50890714Y-36013571D02*
X50830238Y-36074047D01*
X50648809Y-36134523D01*
X50527857Y-36134523D01*
X50346428Y-36074047D01*
X50225476Y-35953095D01*
X50165000Y-35832142D01*
X50104523Y-35590238D01*
X50104523Y-35408809D01*
X50165000Y-35166904D01*
X50225476Y-35045952D01*
X50346428Y-34925000D01*
X50527857Y-34864523D01*
X50648809Y-34864523D01*
X50830238Y-34925000D01*
X50890714Y-34985476D01*
X51314047Y-34864523D02*
X52100238Y-34864523D01*
X51676904Y-35348333D01*
X51858333Y-35348333D01*
X51979285Y-35408809D01*
X52039761Y-35469285D01*
X52100238Y-35590238D01*
X52100238Y-35892619D01*
X52039761Y-36013571D01*
X51979285Y-36074047D01*
X51858333Y-36134523D01*
X51495476Y-36134523D01*
X51374523Y-36074047D01*
X51314047Y-36013571D01*
X17810238Y-36134523D02*
X17810238Y-34864523D01*
X19140714Y-36013571D02*
X19080238Y-36074047D01*
X18898809Y-36134523D01*
X18777857Y-36134523D01*
X18596428Y-36074047D01*
X18475476Y-35953095D01*
X18415000Y-35832142D01*
X18354523Y-35590238D01*
X18354523Y-35408809D01*
X18415000Y-35166904D01*
X18475476Y-35045952D01*
X18596428Y-34925000D01*
X18777857Y-34864523D01*
X18898809Y-34864523D01*
X19080238Y-34925000D01*
X19140714Y-34985476D01*
X19624523Y-34985476D02*
X19685000Y-34925000D01*
X19805952Y-34864523D01*
X20108333Y-34864523D01*
X20229285Y-34925000D01*
X20289761Y-34985476D01*
X20350238Y-35106428D01*
X20350238Y-35227380D01*
X20289761Y-35408809D01*
X19564047Y-36134523D01*
X20350238Y-36134523D01*
D10*
X73612380Y-53403333D02*
X73136190Y-53736666D01*
X73612380Y-53974761D02*
X72612380Y-53974761D01*
X72612380Y-53593809D01*
X72660000Y-53498571D01*
X72707619Y-53450952D01*
X72802857Y-53403333D01*
X72945714Y-53403333D01*
X73040952Y-53450952D01*
X73088571Y-53498571D01*
X73136190Y-53593809D01*
X73136190Y-53974761D01*
X73088571Y-52974761D02*
X73088571Y-52641428D01*
X73612380Y-52498571D02*
X73612380Y-52974761D01*
X72612380Y-52974761D01*
X72612380Y-52498571D01*
X73088571Y-51736666D02*
X73088571Y-52070000D01*
X73612380Y-52070000D02*
X72612380Y-52070000D01*
X72612380Y-51593809D01*
X72612380Y-51070000D02*
X72850476Y-51070000D01*
X72755238Y-51308095D02*
X72850476Y-51070000D01*
X72755238Y-50831904D01*
X73040952Y-51212857D02*
X72850476Y-51070000D01*
X73040952Y-50927142D01*
X72612380Y-50308095D02*
X72850476Y-50308095D01*
X72755238Y-50546190D02*
X72850476Y-50308095D01*
X72755238Y-50070000D01*
X73040952Y-50450952D02*
X72850476Y-50308095D01*
X73040952Y-50165238D01*
X73612380Y-62293333D02*
X73136190Y-62626666D01*
X73612380Y-62864761D02*
X72612380Y-62864761D01*
X72612380Y-62483809D01*
X72660000Y-62388571D01*
X72707619Y-62340952D01*
X72802857Y-62293333D01*
X72945714Y-62293333D01*
X73040952Y-62340952D01*
X73088571Y-62388571D01*
X73136190Y-62483809D01*
X73136190Y-62864761D01*
X73088571Y-61864761D02*
X73088571Y-61531428D01*
X73612380Y-61388571D02*
X73612380Y-61864761D01*
X72612380Y-61864761D01*
X72612380Y-61388571D01*
X73088571Y-60626666D02*
X73088571Y-60960000D01*
X73612380Y-60960000D02*
X72612380Y-60960000D01*
X72612380Y-60483809D01*
X72612380Y-59960000D02*
X72850476Y-59960000D01*
X72755238Y-60198095D02*
X72850476Y-59960000D01*
X72755238Y-59721904D01*
X73040952Y-60102857D02*
X72850476Y-59960000D01*
X73040952Y-59817142D01*
X72612380Y-59198095D02*
X72850476Y-59198095D01*
X72755238Y-59436190D02*
X72850476Y-59198095D01*
X72755238Y-58960000D01*
X73040952Y-59340952D02*
X72850476Y-59198095D01*
X73040952Y-59055238D01*
X65976666Y-78692380D02*
X65643333Y-78216190D01*
X65405238Y-78692380D02*
X65405238Y-77692380D01*
X65786190Y-77692380D01*
X65881428Y-77740000D01*
X65929047Y-77787619D01*
X65976666Y-77882857D01*
X65976666Y-78025714D01*
X65929047Y-78120952D01*
X65881428Y-78168571D01*
X65786190Y-78216190D01*
X65405238Y-78216190D01*
X66405238Y-78168571D02*
X66738571Y-78168571D01*
X66881428Y-78692380D02*
X66405238Y-78692380D01*
X66405238Y-77692380D01*
X66881428Y-77692380D01*
X67643333Y-78168571D02*
X67310000Y-78168571D01*
X67310000Y-78692380D02*
X67310000Y-77692380D01*
X67786190Y-77692380D01*
X68310000Y-77692380D02*
X68310000Y-77930476D01*
X68071904Y-77835238D02*
X68310000Y-77930476D01*
X68548095Y-77835238D01*
X68167142Y-78120952D02*
X68310000Y-77930476D01*
X68452857Y-78120952D01*
X69071904Y-77692380D02*
X69071904Y-77930476D01*
X68833809Y-77835238D02*
X69071904Y-77930476D01*
X69310000Y-77835238D01*
X68929047Y-78120952D02*
X69071904Y-77930476D01*
X69214761Y-78120952D01*
X54546666Y-78692380D02*
X54213333Y-78216190D01*
X53975238Y-78692380D02*
X53975238Y-77692380D01*
X54356190Y-77692380D01*
X54451428Y-77740000D01*
X54499047Y-77787619D01*
X54546666Y-77882857D01*
X54546666Y-78025714D01*
X54499047Y-78120952D01*
X54451428Y-78168571D01*
X54356190Y-78216190D01*
X53975238Y-78216190D01*
X54975238Y-78168571D02*
X55308571Y-78168571D01*
X55451428Y-78692380D02*
X54975238Y-78692380D01*
X54975238Y-77692380D01*
X55451428Y-77692380D01*
X56213333Y-78168571D02*
X55880000Y-78168571D01*
X55880000Y-78692380D02*
X55880000Y-77692380D01*
X56356190Y-77692380D01*
X56880000Y-77692380D02*
X56880000Y-77930476D01*
X56641904Y-77835238D02*
X56880000Y-77930476D01*
X57118095Y-77835238D01*
X56737142Y-78120952D02*
X56880000Y-77930476D01*
X57022857Y-78120952D01*
X57641904Y-77692380D02*
X57641904Y-77930476D01*
X57403809Y-77835238D02*
X57641904Y-77930476D01*
X57880000Y-77835238D01*
X57499047Y-78120952D02*
X57641904Y-77930476D01*
X57784761Y-78120952D01*
X43116666Y-78692380D02*
X42783333Y-78216190D01*
X42545238Y-78692380D02*
X42545238Y-77692380D01*
X42926190Y-77692380D01*
X43021428Y-77740000D01*
X43069047Y-77787619D01*
X43116666Y-77882857D01*
X43116666Y-78025714D01*
X43069047Y-78120952D01*
X43021428Y-78168571D01*
X42926190Y-78216190D01*
X42545238Y-78216190D01*
X43545238Y-78168571D02*
X43878571Y-78168571D01*
X44021428Y-78692380D02*
X43545238Y-78692380D01*
X43545238Y-77692380D01*
X44021428Y-77692380D01*
X44783333Y-78168571D02*
X44450000Y-78168571D01*
X44450000Y-78692380D02*
X44450000Y-77692380D01*
X44926190Y-77692380D01*
X45450000Y-77692380D02*
X45450000Y-77930476D01*
X45211904Y-77835238D02*
X45450000Y-77930476D01*
X45688095Y-77835238D01*
X45307142Y-78120952D02*
X45450000Y-77930476D01*
X45592857Y-78120952D01*
X46211904Y-77692380D02*
X46211904Y-77930476D01*
X45973809Y-77835238D02*
X46211904Y-77930476D01*
X46450000Y-77835238D01*
X46069047Y-78120952D02*
X46211904Y-77930476D01*
X46354761Y-78120952D01*
X31686666Y-78692380D02*
X31353333Y-78216190D01*
X31115238Y-78692380D02*
X31115238Y-77692380D01*
X31496190Y-77692380D01*
X31591428Y-77740000D01*
X31639047Y-77787619D01*
X31686666Y-77882857D01*
X31686666Y-78025714D01*
X31639047Y-78120952D01*
X31591428Y-78168571D01*
X31496190Y-78216190D01*
X31115238Y-78216190D01*
X32115238Y-78168571D02*
X32448571Y-78168571D01*
X32591428Y-78692380D02*
X32115238Y-78692380D01*
X32115238Y-77692380D01*
X32591428Y-77692380D01*
X33353333Y-78168571D02*
X33020000Y-78168571D01*
X33020000Y-78692380D02*
X33020000Y-77692380D01*
X33496190Y-77692380D01*
X34020000Y-77692380D02*
X34020000Y-77930476D01*
X33781904Y-77835238D02*
X34020000Y-77930476D01*
X34258095Y-77835238D01*
X33877142Y-78120952D02*
X34020000Y-77930476D01*
X34162857Y-78120952D01*
X34781904Y-77692380D02*
X34781904Y-77930476D01*
X34543809Y-77835238D02*
X34781904Y-77930476D01*
X35020000Y-77835238D01*
X34639047Y-78120952D02*
X34781904Y-77930476D01*
X34924761Y-78120952D01*
X20256666Y-78692380D02*
X19923333Y-78216190D01*
X19685238Y-78692380D02*
X19685238Y-77692380D01*
X20066190Y-77692380D01*
X20161428Y-77740000D01*
X20209047Y-77787619D01*
X20256666Y-77882857D01*
X20256666Y-78025714D01*
X20209047Y-78120952D01*
X20161428Y-78168571D01*
X20066190Y-78216190D01*
X19685238Y-78216190D01*
X20685238Y-78168571D02*
X21018571Y-78168571D01*
X21161428Y-78692380D02*
X20685238Y-78692380D01*
X20685238Y-77692380D01*
X21161428Y-77692380D01*
X21923333Y-78168571D02*
X21590000Y-78168571D01*
X21590000Y-78692380D02*
X21590000Y-77692380D01*
X22066190Y-77692380D01*
X22590000Y-77692380D02*
X22590000Y-77930476D01*
X22351904Y-77835238D02*
X22590000Y-77930476D01*
X22828095Y-77835238D01*
X22447142Y-78120952D02*
X22590000Y-77930476D01*
X22732857Y-78120952D01*
X23351904Y-77692380D02*
X23351904Y-77930476D01*
X23113809Y-77835238D02*
X23351904Y-77930476D01*
X23590000Y-77835238D01*
X23209047Y-78120952D02*
X23351904Y-77930476D01*
X23494761Y-78120952D01*
X67246666Y-16192380D02*
X66913333Y-15716190D01*
X66675238Y-16192380D02*
X66675238Y-15192380D01*
X67056190Y-15192380D01*
X67151428Y-15240000D01*
X67199047Y-15287619D01*
X67246666Y-15382857D01*
X67246666Y-15525714D01*
X67199047Y-15620952D01*
X67151428Y-15668571D01*
X67056190Y-15716190D01*
X66675238Y-15716190D01*
X67675238Y-15668571D02*
X68008571Y-15668571D01*
X68151428Y-16192380D02*
X67675238Y-16192380D01*
X67675238Y-15192380D01*
X68151428Y-15192380D01*
X68913333Y-15668571D02*
X68580000Y-15668571D01*
X68580000Y-16192380D02*
X68580000Y-15192380D01*
X69056190Y-15192380D01*
X69580000Y-15192380D02*
X69580000Y-15430476D01*
X69341904Y-15335238D02*
X69580000Y-15430476D01*
X69818095Y-15335238D01*
X69437142Y-15620952D02*
X69580000Y-15430476D01*
X69722857Y-15620952D01*
X70341904Y-15192380D02*
X70341904Y-15430476D01*
X70103809Y-15335238D02*
X70341904Y-15430476D01*
X70580000Y-15335238D01*
X70199047Y-15620952D02*
X70341904Y-15430476D01*
X70484761Y-15620952D01*
X55816666Y-16192380D02*
X55483333Y-15716190D01*
X55245238Y-16192380D02*
X55245238Y-15192380D01*
X55626190Y-15192380D01*
X55721428Y-15240000D01*
X55769047Y-15287619D01*
X55816666Y-15382857D01*
X55816666Y-15525714D01*
X55769047Y-15620952D01*
X55721428Y-15668571D01*
X55626190Y-15716190D01*
X55245238Y-15716190D01*
X56245238Y-15668571D02*
X56578571Y-15668571D01*
X56721428Y-16192380D02*
X56245238Y-16192380D01*
X56245238Y-15192380D01*
X56721428Y-15192380D01*
X57483333Y-15668571D02*
X57150000Y-15668571D01*
X57150000Y-16192380D02*
X57150000Y-15192380D01*
X57626190Y-15192380D01*
X58150000Y-15192380D02*
X58150000Y-15430476D01*
X57911904Y-15335238D02*
X58150000Y-15430476D01*
X58388095Y-15335238D01*
X58007142Y-15620952D02*
X58150000Y-15430476D01*
X58292857Y-15620952D01*
X58911904Y-15192380D02*
X58911904Y-15430476D01*
X58673809Y-15335238D02*
X58911904Y-15430476D01*
X59150000Y-15335238D01*
X58769047Y-15620952D02*
X58911904Y-15430476D01*
X59054761Y-15620952D01*
X44386666Y-16192380D02*
X44053333Y-15716190D01*
X43815238Y-16192380D02*
X43815238Y-15192380D01*
X44196190Y-15192380D01*
X44291428Y-15240000D01*
X44339047Y-15287619D01*
X44386666Y-15382857D01*
X44386666Y-15525714D01*
X44339047Y-15620952D01*
X44291428Y-15668571D01*
X44196190Y-15716190D01*
X43815238Y-15716190D01*
X44815238Y-15668571D02*
X45148571Y-15668571D01*
X45291428Y-16192380D02*
X44815238Y-16192380D01*
X44815238Y-15192380D01*
X45291428Y-15192380D01*
X46053333Y-15668571D02*
X45720000Y-15668571D01*
X45720000Y-16192380D02*
X45720000Y-15192380D01*
X46196190Y-15192380D01*
X46720000Y-15192380D02*
X46720000Y-15430476D01*
X46481904Y-15335238D02*
X46720000Y-15430476D01*
X46958095Y-15335238D01*
X46577142Y-15620952D02*
X46720000Y-15430476D01*
X46862857Y-15620952D01*
X47481904Y-15192380D02*
X47481904Y-15430476D01*
X47243809Y-15335238D02*
X47481904Y-15430476D01*
X47720000Y-15335238D01*
X47339047Y-15620952D02*
X47481904Y-15430476D01*
X47624761Y-15620952D01*
X32956666Y-16192380D02*
X32623333Y-15716190D01*
X32385238Y-16192380D02*
X32385238Y-15192380D01*
X32766190Y-15192380D01*
X32861428Y-15240000D01*
X32909047Y-15287619D01*
X32956666Y-15382857D01*
X32956666Y-15525714D01*
X32909047Y-15620952D01*
X32861428Y-15668571D01*
X32766190Y-15716190D01*
X32385238Y-15716190D01*
X33385238Y-15668571D02*
X33718571Y-15668571D01*
X33861428Y-16192380D02*
X33385238Y-16192380D01*
X33385238Y-15192380D01*
X33861428Y-15192380D01*
X34623333Y-15668571D02*
X34290000Y-15668571D01*
X34290000Y-16192380D02*
X34290000Y-15192380D01*
X34766190Y-15192380D01*
X35290000Y-15192380D02*
X35290000Y-15430476D01*
X35051904Y-15335238D02*
X35290000Y-15430476D01*
X35528095Y-15335238D01*
X35147142Y-15620952D02*
X35290000Y-15430476D01*
X35432857Y-15620952D01*
X36051904Y-15192380D02*
X36051904Y-15430476D01*
X35813809Y-15335238D02*
X36051904Y-15430476D01*
X36290000Y-15335238D01*
X35909047Y-15620952D02*
X36051904Y-15430476D01*
X36194761Y-15620952D01*
X21526666Y-16192380D02*
X21193333Y-15716190D01*
X20955238Y-16192380D02*
X20955238Y-15192380D01*
X21336190Y-15192380D01*
X21431428Y-15240000D01*
X21479047Y-15287619D01*
X21526666Y-15382857D01*
X21526666Y-15525714D01*
X21479047Y-15620952D01*
X21431428Y-15668571D01*
X21336190Y-15716190D01*
X20955238Y-15716190D01*
X21955238Y-15668571D02*
X22288571Y-15668571D01*
X22431428Y-16192380D02*
X21955238Y-16192380D01*
X21955238Y-15192380D01*
X22431428Y-15192380D01*
X23193333Y-15668571D02*
X22860000Y-15668571D01*
X22860000Y-16192380D02*
X22860000Y-15192380D01*
X23336190Y-15192380D01*
X23860000Y-15192380D02*
X23860000Y-15430476D01*
X23621904Y-15335238D02*
X23860000Y-15430476D01*
X24098095Y-15335238D01*
X23717142Y-15620952D02*
X23860000Y-15430476D01*
X24002857Y-15620952D01*
X24621904Y-15192380D02*
X24621904Y-15430476D01*
X24383809Y-15335238D02*
X24621904Y-15430476D01*
X24860000Y-15335238D01*
X24479047Y-15620952D02*
X24621904Y-15430476D01*
X24764761Y-15620952D01*
X17002380Y-54109523D02*
X16002380Y-54109523D01*
X16002380Y-53776190D02*
X16002380Y-53204761D01*
X17002380Y-53490476D02*
X16002380Y-53490476D01*
X16954761Y-52919047D02*
X17002380Y-52776190D01*
X17002380Y-52538095D01*
X16954761Y-52442857D01*
X16907142Y-52395238D01*
X16811904Y-52347619D01*
X16716666Y-52347619D01*
X16621428Y-52395238D01*
X16573809Y-52442857D01*
X16526190Y-52538095D01*
X16478571Y-52728571D01*
X16430952Y-52823809D01*
X16383333Y-52871428D01*
X16288095Y-52919047D01*
X16192857Y-52919047D01*
X16097619Y-52871428D01*
X16050000Y-52823809D01*
X16002380Y-52728571D01*
X16002380Y-52490476D01*
X16050000Y-52347619D01*
X16526190Y-51728571D02*
X17002380Y-51728571D01*
X16002380Y-52061904D02*
X16526190Y-51728571D01*
X16002380Y-51395238D01*
X16478571Y-50728571D02*
X16526190Y-50585714D01*
X16573809Y-50538095D01*
X16669047Y-50490476D01*
X16811904Y-50490476D01*
X16907142Y-50538095D01*
X16954761Y-50585714D01*
X17002380Y-50680952D01*
X17002380Y-51061904D01*
X16002380Y-51061904D01*
X16002380Y-50728571D01*
X16050000Y-50633333D01*
X16097619Y-50585714D01*
X16192857Y-50538095D01*
X16288095Y-50538095D01*
X16383333Y-50585714D01*
X16430952Y-50633333D01*
X16478571Y-50728571D01*
X16478571Y-51061904D01*
X17002380Y-50061904D02*
X16002380Y-50061904D01*
X16002380Y-49728571D02*
X16002380Y-49157142D01*
X17002380Y-49442857D02*
X16002380Y-49442857D01*
X16954761Y-48871428D02*
X17002380Y-48728571D01*
X17002380Y-48490476D01*
X16954761Y-48395238D01*
X16907142Y-48347619D01*
X16811904Y-48300000D01*
X16716666Y-48300000D01*
X16621428Y-48347619D01*
X16573809Y-48395238D01*
X16526190Y-48490476D01*
X16478571Y-48680952D01*
X16430952Y-48776190D01*
X16383333Y-48823809D01*
X16288095Y-48871428D01*
X16192857Y-48871428D01*
X16097619Y-48823809D01*
X16050000Y-48776190D01*
X16002380Y-48680952D01*
X16002380Y-48442857D01*
X16050000Y-48300000D01*
X16526190Y-47680952D02*
X17002380Y-47680952D01*
X16002380Y-48014285D02*
X16526190Y-47680952D01*
X16002380Y-47347619D01*
X19502380Y-62777619D02*
X19026190Y-63110952D01*
X19502380Y-63349047D02*
X18502380Y-63349047D01*
X18502380Y-62968095D01*
X18550000Y-62872857D01*
X18597619Y-62825238D01*
X18692857Y-62777619D01*
X18835714Y-62777619D01*
X18930952Y-62825238D01*
X18978571Y-62872857D01*
X19026190Y-62968095D01*
X19026190Y-63349047D01*
X19454761Y-62396666D02*
X19502380Y-62253809D01*
X19502380Y-62015714D01*
X19454761Y-61920476D01*
X19407142Y-61872857D01*
X19311904Y-61825238D01*
X19216666Y-61825238D01*
X19121428Y-61872857D01*
X19073809Y-61920476D01*
X19026190Y-62015714D01*
X18978571Y-62206190D01*
X18930952Y-62301428D01*
X18883333Y-62349047D01*
X18788095Y-62396666D01*
X18692857Y-62396666D01*
X18597619Y-62349047D01*
X18550000Y-62301428D01*
X18502380Y-62206190D01*
X18502380Y-61968095D01*
X18550000Y-61825238D01*
X18502380Y-61539523D02*
X18502380Y-60968095D01*
X19502380Y-61253809D02*
X18502380Y-61253809D01*
X21042380Y-63468095D02*
X21042380Y-62849047D01*
X21423333Y-63182380D01*
X21423333Y-63039523D01*
X21470952Y-62944285D01*
X21518571Y-62896666D01*
X21613809Y-62849047D01*
X21851904Y-62849047D01*
X21947142Y-62896666D01*
X21994761Y-62944285D01*
X22042380Y-63039523D01*
X22042380Y-63325238D01*
X21994761Y-63420476D01*
X21947142Y-63468095D01*
X21042380Y-62563333D02*
X22042380Y-62230000D01*
X21042380Y-61896666D01*
X21042380Y-61658571D02*
X21042380Y-61039523D01*
X21423333Y-61372857D01*
X21423333Y-61230000D01*
X21470952Y-61134761D01*
X21518571Y-61087142D01*
X21613809Y-61039523D01*
X21851904Y-61039523D01*
X21947142Y-61087142D01*
X21994761Y-61134761D01*
X22042380Y-61230000D01*
X22042380Y-61515714D01*
X21994761Y-61610952D01*
X21947142Y-61658571D01*
X24296666Y-63849047D02*
X24296666Y-63372857D01*
X24582380Y-63944285D02*
X23582380Y-63610952D01*
X24582380Y-63277619D01*
X24582380Y-62372857D02*
X24106190Y-62706190D01*
X24582380Y-62944285D02*
X23582380Y-62944285D01*
X23582380Y-62563333D01*
X23630000Y-62468095D01*
X23677619Y-62420476D01*
X23772857Y-62372857D01*
X23915714Y-62372857D01*
X24010952Y-62420476D01*
X24058571Y-62468095D01*
X24106190Y-62563333D01*
X24106190Y-62944285D01*
X24058571Y-61944285D02*
X24058571Y-61610952D01*
X24582380Y-61468095D02*
X24582380Y-61944285D01*
X23582380Y-61944285D01*
X23582380Y-61468095D01*
X24058571Y-60706190D02*
X24058571Y-61039523D01*
X24582380Y-61039523D02*
X23582380Y-61039523D01*
X23582380Y-60563333D01*
X26122380Y-63325238D02*
X27122380Y-62991904D01*
X26122380Y-62658571D01*
X27122380Y-62325238D02*
X26122380Y-62325238D01*
X26598571Y-62325238D02*
X26598571Y-61753809D01*
X27122380Y-61753809D02*
X26122380Y-61753809D01*
X27122380Y-61277619D02*
X26122380Y-61277619D01*
X29376666Y-62944285D02*
X29376666Y-62468095D01*
X29662380Y-63039523D02*
X28662380Y-62706190D01*
X29662380Y-62372857D01*
X28662380Y-61849047D02*
X28662380Y-61753809D01*
X28710000Y-61658571D01*
X28757619Y-61610952D01*
X28852857Y-61563333D01*
X29043333Y-61515714D01*
X29281428Y-61515714D01*
X29471904Y-61563333D01*
X29567142Y-61610952D01*
X29614761Y-61658571D01*
X29662380Y-61753809D01*
X29662380Y-61849047D01*
X29614761Y-61944285D01*
X29567142Y-61991904D01*
X29471904Y-62039523D01*
X29281428Y-62087142D01*
X29043333Y-62087142D01*
X28852857Y-62039523D01*
X28757619Y-61991904D01*
X28710000Y-61944285D01*
X28662380Y-61849047D01*
X31916666Y-62944285D02*
X31916666Y-62468095D01*
X32202380Y-63039523D02*
X31202380Y-62706190D01*
X32202380Y-62372857D01*
X32202380Y-61515714D02*
X32202380Y-62087142D01*
X32202380Y-61801428D02*
X31202380Y-61801428D01*
X31345238Y-61896666D01*
X31440476Y-61991904D01*
X31488095Y-62087142D01*
X34456666Y-62944285D02*
X34456666Y-62468095D01*
X34742380Y-63039523D02*
X33742380Y-62706190D01*
X34742380Y-62372857D01*
X33837619Y-62087142D02*
X33790000Y-62039523D01*
X33742380Y-61944285D01*
X33742380Y-61706190D01*
X33790000Y-61610952D01*
X33837619Y-61563333D01*
X33932857Y-61515714D01*
X34028095Y-61515714D01*
X34170952Y-61563333D01*
X34742380Y-62134761D01*
X34742380Y-61515714D01*
X36996666Y-62944285D02*
X36996666Y-62468095D01*
X37282380Y-63039523D02*
X36282380Y-62706190D01*
X37282380Y-62372857D01*
X36282380Y-62134761D02*
X36282380Y-61515714D01*
X36663333Y-61849047D01*
X36663333Y-61706190D01*
X36710952Y-61610952D01*
X36758571Y-61563333D01*
X36853809Y-61515714D01*
X37091904Y-61515714D01*
X37187142Y-61563333D01*
X37234761Y-61610952D01*
X37282380Y-61706190D01*
X37282380Y-61991904D01*
X37234761Y-62087142D01*
X37187142Y-62134761D01*
X39536666Y-62944285D02*
X39536666Y-62468095D01*
X39822380Y-63039523D02*
X38822380Y-62706190D01*
X39822380Y-62372857D01*
X39155714Y-61610952D02*
X39822380Y-61610952D01*
X38774761Y-61849047D02*
X39489047Y-62087142D01*
X39489047Y-61468095D01*
X42076666Y-62944285D02*
X42076666Y-62468095D01*
X42362380Y-63039523D02*
X41362380Y-62706190D01*
X42362380Y-62372857D01*
X41362380Y-61563333D02*
X41362380Y-62039523D01*
X41838571Y-62087142D01*
X41790952Y-62039523D01*
X41743333Y-61944285D01*
X41743333Y-61706190D01*
X41790952Y-61610952D01*
X41838571Y-61563333D01*
X41933809Y-61515714D01*
X42171904Y-61515714D01*
X42267142Y-61563333D01*
X42314761Y-61610952D01*
X42362380Y-61706190D01*
X42362380Y-61944285D01*
X42314761Y-62039523D01*
X42267142Y-62087142D01*
X44854761Y-63515714D02*
X44902380Y-63372857D01*
X44902380Y-63134761D01*
X44854761Y-63039523D01*
X44807142Y-62991904D01*
X44711904Y-62944285D01*
X44616666Y-62944285D01*
X44521428Y-62991904D01*
X44473809Y-63039523D01*
X44426190Y-63134761D01*
X44378571Y-63325238D01*
X44330952Y-63420476D01*
X44283333Y-63468095D01*
X44188095Y-63515714D01*
X44092857Y-63515714D01*
X43997619Y-63468095D01*
X43950000Y-63420476D01*
X43902380Y-63325238D01*
X43902380Y-63087142D01*
X43950000Y-62944285D01*
X44807142Y-61944285D02*
X44854761Y-61991904D01*
X44902380Y-62134761D01*
X44902380Y-62230000D01*
X44854761Y-62372857D01*
X44759523Y-62468095D01*
X44664285Y-62515714D01*
X44473809Y-62563333D01*
X44330952Y-62563333D01*
X44140476Y-62515714D01*
X44045238Y-62468095D01*
X43950000Y-62372857D01*
X43902380Y-62230000D01*
X43902380Y-62134761D01*
X43950000Y-61991904D01*
X43997619Y-61944285D01*
X44902380Y-61515714D02*
X43902380Y-61515714D01*
X44902380Y-60944285D02*
X44330952Y-61372857D01*
X43902380Y-60944285D02*
X44473809Y-61515714D01*
X47442380Y-63801428D02*
X46442380Y-63801428D01*
X47156666Y-63468095D01*
X46442380Y-63134761D01*
X47442380Y-63134761D01*
X46442380Y-62468095D02*
X46442380Y-62277619D01*
X46490000Y-62182380D01*
X46585238Y-62087142D01*
X46775714Y-62039523D01*
X47109047Y-62039523D01*
X47299523Y-62087142D01*
X47394761Y-62182380D01*
X47442380Y-62277619D01*
X47442380Y-62468095D01*
X47394761Y-62563333D01*
X47299523Y-62658571D01*
X47109047Y-62706190D01*
X46775714Y-62706190D01*
X46585238Y-62658571D01*
X46490000Y-62563333D01*
X46442380Y-62468095D01*
X47394761Y-61658571D02*
X47442380Y-61515714D01*
X47442380Y-61277619D01*
X47394761Y-61182380D01*
X47347142Y-61134761D01*
X47251904Y-61087142D01*
X47156666Y-61087142D01*
X47061428Y-61134761D01*
X47013809Y-61182380D01*
X46966190Y-61277619D01*
X46918571Y-61468095D01*
X46870952Y-61563333D01*
X46823333Y-61610952D01*
X46728095Y-61658571D01*
X46632857Y-61658571D01*
X46537619Y-61610952D01*
X46490000Y-61563333D01*
X46442380Y-61468095D01*
X46442380Y-61230000D01*
X46490000Y-61087142D01*
X47442380Y-60658571D02*
X46442380Y-60658571D01*
X49982380Y-63801428D02*
X48982380Y-63801428D01*
X49696666Y-63468095D01*
X48982380Y-63134761D01*
X49982380Y-63134761D01*
X49982380Y-62658571D02*
X48982380Y-62658571D01*
X49934761Y-62230000D02*
X49982380Y-62087142D01*
X49982380Y-61849047D01*
X49934761Y-61753809D01*
X49887142Y-61706190D01*
X49791904Y-61658571D01*
X49696666Y-61658571D01*
X49601428Y-61706190D01*
X49553809Y-61753809D01*
X49506190Y-61849047D01*
X49458571Y-62039523D01*
X49410952Y-62134761D01*
X49363333Y-62182380D01*
X49268095Y-62230000D01*
X49172857Y-62230000D01*
X49077619Y-62182380D01*
X49030000Y-62134761D01*
X48982380Y-62039523D01*
X48982380Y-61801428D01*
X49030000Y-61658571D01*
X48982380Y-61039523D02*
X48982380Y-60849047D01*
X49030000Y-60753809D01*
X49125238Y-60658571D01*
X49315714Y-60610952D01*
X49649047Y-60610952D01*
X49839523Y-60658571D01*
X49934761Y-60753809D01*
X49982380Y-60849047D01*
X49982380Y-61039523D01*
X49934761Y-61134761D01*
X49839523Y-61230000D01*
X49649047Y-61277619D01*
X49315714Y-61277619D01*
X49125238Y-61230000D01*
X49030000Y-61134761D01*
X48982380Y-61039523D01*
X52522380Y-62968095D02*
X51522380Y-62968095D01*
X51522380Y-62730000D01*
X51570000Y-62587142D01*
X51665238Y-62491904D01*
X51760476Y-62444285D01*
X51950952Y-62396666D01*
X52093809Y-62396666D01*
X52284285Y-62444285D01*
X52379523Y-62491904D01*
X52474761Y-62587142D01*
X52522380Y-62730000D01*
X52522380Y-62968095D01*
X51617619Y-62015714D02*
X51570000Y-61968095D01*
X51522380Y-61872857D01*
X51522380Y-61634761D01*
X51570000Y-61539523D01*
X51617619Y-61491904D01*
X51712857Y-61444285D01*
X51808095Y-61444285D01*
X51950952Y-61491904D01*
X52522380Y-62063333D01*
X52522380Y-61444285D01*
X53871904Y-48712380D02*
X53871904Y-47712380D01*
X54110000Y-47712380D01*
X54252857Y-47760000D01*
X54348095Y-47855238D01*
X54395714Y-47950476D01*
X54443333Y-48140952D01*
X54443333Y-48283809D01*
X54395714Y-48474285D01*
X54348095Y-48569523D01*
X54252857Y-48664761D01*
X54110000Y-48712380D01*
X53871904Y-48712380D01*
X54776666Y-47712380D02*
X55395714Y-47712380D01*
X55062380Y-48093333D01*
X55205238Y-48093333D01*
X55300476Y-48140952D01*
X55348095Y-48188571D01*
X55395714Y-48283809D01*
X55395714Y-48521904D01*
X55348095Y-48617142D01*
X55300476Y-48664761D01*
X55205238Y-48712380D01*
X54919523Y-48712380D01*
X54824285Y-48664761D01*
X54776666Y-48617142D01*
X53871904Y-46172380D02*
X53871904Y-45172380D01*
X54110000Y-45172380D01*
X54252857Y-45220000D01*
X54348095Y-45315238D01*
X54395714Y-45410476D01*
X54443333Y-45600952D01*
X54443333Y-45743809D01*
X54395714Y-45934285D01*
X54348095Y-46029523D01*
X54252857Y-46124761D01*
X54110000Y-46172380D01*
X53871904Y-46172380D01*
X55300476Y-45505714D02*
X55300476Y-46172380D01*
X55062380Y-45124761D02*
X54824285Y-45839047D01*
X55443333Y-45839047D01*
X52522380Y-40108095D02*
X51522380Y-40108095D01*
X51522380Y-39870000D01*
X51570000Y-39727142D01*
X51665238Y-39631904D01*
X51760476Y-39584285D01*
X51950952Y-39536666D01*
X52093809Y-39536666D01*
X52284285Y-39584285D01*
X52379523Y-39631904D01*
X52474761Y-39727142D01*
X52522380Y-39870000D01*
X52522380Y-40108095D01*
X51522380Y-38917619D02*
X51522380Y-38822380D01*
X51570000Y-38727142D01*
X51617619Y-38679523D01*
X51712857Y-38631904D01*
X51903333Y-38584285D01*
X52141428Y-38584285D01*
X52331904Y-38631904D01*
X52427142Y-38679523D01*
X52474761Y-38727142D01*
X52522380Y-38822380D01*
X52522380Y-38917619D01*
X52474761Y-39012857D01*
X52427142Y-39060476D01*
X52331904Y-39108095D01*
X52141428Y-39155714D01*
X51903333Y-39155714D01*
X51712857Y-39108095D01*
X51617619Y-39060476D01*
X51570000Y-39012857D01*
X51522380Y-38917619D01*
X49982380Y-40108095D02*
X48982380Y-40108095D01*
X48982380Y-39870000D01*
X49030000Y-39727142D01*
X49125238Y-39631904D01*
X49220476Y-39584285D01*
X49410952Y-39536666D01*
X49553809Y-39536666D01*
X49744285Y-39584285D01*
X49839523Y-39631904D01*
X49934761Y-39727142D01*
X49982380Y-39870000D01*
X49982380Y-40108095D01*
X49982380Y-38584285D02*
X49982380Y-39155714D01*
X49982380Y-38870000D02*
X48982380Y-38870000D01*
X49125238Y-38965238D01*
X49220476Y-39060476D01*
X49268095Y-39155714D01*
X47394761Y-40584285D02*
X47442380Y-40441428D01*
X47442380Y-40203333D01*
X47394761Y-40108095D01*
X47347142Y-40060476D01*
X47251904Y-40012857D01*
X47156666Y-40012857D01*
X47061428Y-40060476D01*
X47013809Y-40108095D01*
X46966190Y-40203333D01*
X46918571Y-40393809D01*
X46870952Y-40489047D01*
X46823333Y-40536666D01*
X46728095Y-40584285D01*
X46632857Y-40584285D01*
X46537619Y-40536666D01*
X46490000Y-40489047D01*
X46442380Y-40393809D01*
X46442380Y-40155714D01*
X46490000Y-40012857D01*
X47442380Y-39584285D02*
X46442380Y-39584285D01*
X46442380Y-39346190D01*
X46490000Y-39203333D01*
X46585238Y-39108095D01*
X46680476Y-39060476D01*
X46870952Y-39012857D01*
X47013809Y-39012857D01*
X47204285Y-39060476D01*
X47299523Y-39108095D01*
X47394761Y-39203333D01*
X47442380Y-39346190D01*
X47442380Y-39584285D01*
X47156666Y-38631904D02*
X47156666Y-38155714D01*
X47442380Y-38727142D02*
X46442380Y-38393809D01*
X47442380Y-38060476D01*
X44854761Y-40560476D02*
X44902380Y-40417619D01*
X44902380Y-40179523D01*
X44854761Y-40084285D01*
X44807142Y-40036666D01*
X44711904Y-39989047D01*
X44616666Y-39989047D01*
X44521428Y-40036666D01*
X44473809Y-40084285D01*
X44426190Y-40179523D01*
X44378571Y-40370000D01*
X44330952Y-40465238D01*
X44283333Y-40512857D01*
X44188095Y-40560476D01*
X44092857Y-40560476D01*
X43997619Y-40512857D01*
X43950000Y-40465238D01*
X43902380Y-40370000D01*
X43902380Y-40131904D01*
X43950000Y-39989047D01*
X44807142Y-38989047D02*
X44854761Y-39036666D01*
X44902380Y-39179523D01*
X44902380Y-39274761D01*
X44854761Y-39417619D01*
X44759523Y-39512857D01*
X44664285Y-39560476D01*
X44473809Y-39608095D01*
X44330952Y-39608095D01*
X44140476Y-39560476D01*
X44045238Y-39512857D01*
X43950000Y-39417619D01*
X43902380Y-39274761D01*
X43902380Y-39179523D01*
X43950000Y-39036666D01*
X43997619Y-38989047D01*
X44902380Y-38084285D02*
X44902380Y-38560476D01*
X43902380Y-38560476D01*
X42362380Y-40108095D02*
X41362380Y-40108095D01*
X41362380Y-39870000D01*
X41410000Y-39727142D01*
X41505238Y-39631904D01*
X41600476Y-39584285D01*
X41790952Y-39536666D01*
X41933809Y-39536666D01*
X42124285Y-39584285D01*
X42219523Y-39631904D01*
X42314761Y-39727142D01*
X42362380Y-39870000D01*
X42362380Y-40108095D01*
X41362380Y-38631904D02*
X41362380Y-39108095D01*
X41838571Y-39155714D01*
X41790952Y-39108095D01*
X41743333Y-39012857D01*
X41743333Y-38774761D01*
X41790952Y-38679523D01*
X41838571Y-38631904D01*
X41933809Y-38584285D01*
X42171904Y-38584285D01*
X42267142Y-38631904D01*
X42314761Y-38679523D01*
X42362380Y-38774761D01*
X42362380Y-39012857D01*
X42314761Y-39108095D01*
X42267142Y-39155714D01*
X39822380Y-40108095D02*
X38822380Y-40108095D01*
X38822380Y-39870000D01*
X38870000Y-39727142D01*
X38965238Y-39631904D01*
X39060476Y-39584285D01*
X39250952Y-39536666D01*
X39393809Y-39536666D01*
X39584285Y-39584285D01*
X39679523Y-39631904D01*
X39774761Y-39727142D01*
X39822380Y-39870000D01*
X39822380Y-40108095D01*
X38822380Y-39203333D02*
X38822380Y-38536666D01*
X39822380Y-38965238D01*
X37282380Y-40108095D02*
X36282380Y-40108095D01*
X36282380Y-39870000D01*
X36330000Y-39727142D01*
X36425238Y-39631904D01*
X36520476Y-39584285D01*
X36710952Y-39536666D01*
X36853809Y-39536666D01*
X37044285Y-39584285D01*
X37139523Y-39631904D01*
X37234761Y-39727142D01*
X37282380Y-39870000D01*
X37282380Y-40108095D01*
X37282380Y-39060476D02*
X37282380Y-38870000D01*
X37234761Y-38774761D01*
X37187142Y-38727142D01*
X37044285Y-38631904D01*
X36853809Y-38584285D01*
X36472857Y-38584285D01*
X36377619Y-38631904D01*
X36330000Y-38679523D01*
X36282380Y-38774761D01*
X36282380Y-38965238D01*
X36330000Y-39060476D01*
X36377619Y-39108095D01*
X36472857Y-39155714D01*
X36710952Y-39155714D01*
X36806190Y-39108095D01*
X36853809Y-39060476D01*
X36901428Y-38965238D01*
X36901428Y-38774761D01*
X36853809Y-38679523D01*
X36806190Y-38631904D01*
X36710952Y-38584285D01*
X34742380Y-40584285D02*
X33742380Y-40584285D01*
X33742380Y-40346190D01*
X33790000Y-40203333D01*
X33885238Y-40108095D01*
X33980476Y-40060476D01*
X34170952Y-40012857D01*
X34313809Y-40012857D01*
X34504285Y-40060476D01*
X34599523Y-40108095D01*
X34694761Y-40203333D01*
X34742380Y-40346190D01*
X34742380Y-40584285D01*
X34742380Y-39060476D02*
X34742380Y-39631904D01*
X34742380Y-39346190D02*
X33742380Y-39346190D01*
X33885238Y-39441428D01*
X33980476Y-39536666D01*
X34028095Y-39631904D01*
X33742380Y-38441428D02*
X33742380Y-38346190D01*
X33790000Y-38250952D01*
X33837619Y-38203333D01*
X33932857Y-38155714D01*
X34123333Y-38108095D01*
X34361428Y-38108095D01*
X34551904Y-38155714D01*
X34647142Y-38203333D01*
X34694761Y-38250952D01*
X34742380Y-38346190D01*
X34742380Y-38441428D01*
X34694761Y-38536666D01*
X34647142Y-38584285D01*
X34551904Y-38631904D01*
X34361428Y-38679523D01*
X34123333Y-38679523D01*
X33932857Y-38631904D01*
X33837619Y-38584285D01*
X33790000Y-38536666D01*
X33742380Y-38441428D01*
X32202380Y-40584285D02*
X31202380Y-40584285D01*
X31202380Y-40346190D01*
X31250000Y-40203333D01*
X31345238Y-40108095D01*
X31440476Y-40060476D01*
X31630952Y-40012857D01*
X31773809Y-40012857D01*
X31964285Y-40060476D01*
X32059523Y-40108095D01*
X32154761Y-40203333D01*
X32202380Y-40346190D01*
X32202380Y-40584285D01*
X32202380Y-39060476D02*
X32202380Y-39631904D01*
X32202380Y-39346190D02*
X31202380Y-39346190D01*
X31345238Y-39441428D01*
X31440476Y-39536666D01*
X31488095Y-39631904D01*
X32202380Y-38108095D02*
X32202380Y-38679523D01*
X32202380Y-38393809D02*
X31202380Y-38393809D01*
X31345238Y-38489047D01*
X31440476Y-38584285D01*
X31488095Y-38679523D01*
X29662380Y-40584285D02*
X28662380Y-40584285D01*
X28662380Y-40346190D01*
X28710000Y-40203333D01*
X28805238Y-40108095D01*
X28900476Y-40060476D01*
X29090952Y-40012857D01*
X29233809Y-40012857D01*
X29424285Y-40060476D01*
X29519523Y-40108095D01*
X29614761Y-40203333D01*
X29662380Y-40346190D01*
X29662380Y-40584285D01*
X29662380Y-39060476D02*
X29662380Y-39631904D01*
X29662380Y-39346190D02*
X28662380Y-39346190D01*
X28805238Y-39441428D01*
X28900476Y-39536666D01*
X28948095Y-39631904D01*
X28757619Y-38679523D02*
X28710000Y-38631904D01*
X28662380Y-38536666D01*
X28662380Y-38298571D01*
X28710000Y-38203333D01*
X28757619Y-38155714D01*
X28852857Y-38108095D01*
X28948095Y-38108095D01*
X29090952Y-38155714D01*
X29662380Y-38727142D01*
X29662380Y-38108095D01*
X27122380Y-40584285D02*
X26122380Y-40584285D01*
X26122380Y-40346190D01*
X26170000Y-40203333D01*
X26265238Y-40108095D01*
X26360476Y-40060476D01*
X26550952Y-40012857D01*
X26693809Y-40012857D01*
X26884285Y-40060476D01*
X26979523Y-40108095D01*
X27074761Y-40203333D01*
X27122380Y-40346190D01*
X27122380Y-40584285D01*
X27122380Y-39060476D02*
X27122380Y-39631904D01*
X27122380Y-39346190D02*
X26122380Y-39346190D01*
X26265238Y-39441428D01*
X26360476Y-39536666D01*
X26408095Y-39631904D01*
X26122380Y-38727142D02*
X26122380Y-38108095D01*
X26503333Y-38441428D01*
X26503333Y-38298571D01*
X26550952Y-38203333D01*
X26598571Y-38155714D01*
X26693809Y-38108095D01*
X26931904Y-38108095D01*
X27027142Y-38155714D01*
X27074761Y-38203333D01*
X27122380Y-38298571D01*
X27122380Y-38584285D01*
X27074761Y-38679523D01*
X27027142Y-38727142D01*
X23582380Y-41203333D02*
X24582380Y-40870000D01*
X23582380Y-40536666D01*
X24058571Y-39870000D02*
X24106190Y-39727142D01*
X24153809Y-39679523D01*
X24249047Y-39631904D01*
X24391904Y-39631904D01*
X24487142Y-39679523D01*
X24534761Y-39727142D01*
X24582380Y-39822380D01*
X24582380Y-40203333D01*
X23582380Y-40203333D01*
X23582380Y-39870000D01*
X23630000Y-39774761D01*
X23677619Y-39727142D01*
X23772857Y-39679523D01*
X23868095Y-39679523D01*
X23963333Y-39727142D01*
X24010952Y-39774761D01*
X24058571Y-39870000D01*
X24058571Y-40203333D01*
X23582380Y-39203333D02*
X24391904Y-39203333D01*
X24487142Y-39155714D01*
X24534761Y-39108095D01*
X24582380Y-39012857D01*
X24582380Y-38822380D01*
X24534761Y-38727142D01*
X24487142Y-38679523D01*
X24391904Y-38631904D01*
X23582380Y-38631904D01*
X24534761Y-38203333D02*
X24582380Y-38060476D01*
X24582380Y-37822380D01*
X24534761Y-37727142D01*
X24487142Y-37679523D01*
X24391904Y-37631904D01*
X24296666Y-37631904D01*
X24201428Y-37679523D01*
X24153809Y-37727142D01*
X24106190Y-37822380D01*
X24058571Y-38012857D01*
X24010952Y-38108095D01*
X23963333Y-38155714D01*
X23868095Y-38203333D01*
X23772857Y-38203333D01*
X23677619Y-38155714D01*
X23630000Y-38108095D01*
X23582380Y-38012857D01*
X23582380Y-37774761D01*
X23630000Y-37631904D01*
X21090000Y-40131904D02*
X21042380Y-40227142D01*
X21042380Y-40370000D01*
X21090000Y-40512857D01*
X21185238Y-40608095D01*
X21280476Y-40655714D01*
X21470952Y-40703333D01*
X21613809Y-40703333D01*
X21804285Y-40655714D01*
X21899523Y-40608095D01*
X21994761Y-40512857D01*
X22042380Y-40370000D01*
X22042380Y-40274761D01*
X21994761Y-40131904D01*
X21947142Y-40084285D01*
X21613809Y-40084285D01*
X21613809Y-40274761D01*
X22042380Y-39655714D02*
X21042380Y-39655714D01*
X22042380Y-39084285D01*
X21042380Y-39084285D01*
X22042380Y-38608095D02*
X21042380Y-38608095D01*
X21042380Y-38370000D01*
X21090000Y-38227142D01*
X21185238Y-38131904D01*
X21280476Y-38084285D01*
X21470952Y-38036666D01*
X21613809Y-38036666D01*
X21804285Y-38084285D01*
X21899523Y-38131904D01*
X21994761Y-38227142D01*
X22042380Y-38370000D01*
X22042380Y-38608095D01*
X18502380Y-41012857D02*
X19502380Y-40679523D01*
X18502380Y-40346190D01*
X18978571Y-39679523D02*
X19026190Y-39536666D01*
X19073809Y-39489047D01*
X19169047Y-39441428D01*
X19311904Y-39441428D01*
X19407142Y-39489047D01*
X19454761Y-39536666D01*
X19502380Y-39631904D01*
X19502380Y-40012857D01*
X18502380Y-40012857D01*
X18502380Y-39679523D01*
X18550000Y-39584285D01*
X18597619Y-39536666D01*
X18692857Y-39489047D01*
X18788095Y-39489047D01*
X18883333Y-39536666D01*
X18930952Y-39584285D01*
X18978571Y-39679523D01*
X18978571Y-40012857D01*
X19216666Y-39060476D02*
X19216666Y-38584285D01*
X19502380Y-39155714D02*
X18502380Y-38822380D01*
X19502380Y-38489047D01*
X18502380Y-38298571D02*
X18502380Y-37727142D01*
X19502380Y-38012857D02*
X18502380Y-38012857D01*
D15*
X59720238Y-36134523D02*
X59720238Y-34864523D01*
X61050714Y-36013571D02*
X60990238Y-36074047D01*
X60808809Y-36134523D01*
X60687857Y-36134523D01*
X60506428Y-36074047D01*
X60385476Y-35953095D01*
X60325000Y-35832142D01*
X60264523Y-35590238D01*
X60264523Y-35408809D01*
X60325000Y-35166904D01*
X60385476Y-35045952D01*
X60506428Y-34925000D01*
X60687857Y-34864523D01*
X60808809Y-34864523D01*
X60990238Y-34925000D01*
X61050714Y-34985476D01*
X62139285Y-35287857D02*
X62139285Y-36134523D01*
X61836904Y-34804047D02*
X61534523Y-35711190D01*
X62320714Y-35711190D01*
X31780238Y-36134523D02*
X31780238Y-34864523D01*
X33110714Y-36013571D02*
X33050238Y-36074047D01*
X32868809Y-36134523D01*
X32747857Y-36134523D01*
X32566428Y-36074047D01*
X32445476Y-35953095D01*
X32385000Y-35832142D01*
X32324523Y-35590238D01*
X32324523Y-35408809D01*
X32385000Y-35166904D01*
X32445476Y-35045952D01*
X32566428Y-34925000D01*
X32747857Y-34864523D01*
X32868809Y-34864523D01*
X33050238Y-34925000D01*
X33110714Y-34985476D01*
X34320238Y-36134523D02*
X33594523Y-36134523D01*
X33957380Y-36134523D02*
X33957380Y-34864523D01*
X33836428Y-35045952D01*
X33715476Y-35166904D01*
X33594523Y-35227380D01*
D10*
X42472380Y-37568095D02*
X42472380Y-38044285D01*
X42948571Y-38091904D01*
X42900952Y-38044285D01*
X42853333Y-37949047D01*
X42853333Y-37710952D01*
X42900952Y-37615714D01*
X42948571Y-37568095D01*
X43043809Y-37520476D01*
X43281904Y-37520476D01*
X43377142Y-37568095D01*
X43424761Y-37615714D01*
X43472380Y-37710952D01*
X43472380Y-37949047D01*
X43424761Y-38044285D01*
X43377142Y-38091904D01*
X43472380Y-37091904D02*
X42472380Y-37091904D01*
X43472380Y-36520476D02*
X42900952Y-36949047D01*
X42472380Y-36520476D02*
X43043809Y-37091904D01*
X43472380Y-35568095D02*
X43472380Y-36139523D01*
X43472380Y-35853809D02*
X42472380Y-35853809D01*
X42615238Y-35949047D01*
X42710476Y-36044285D01*
X42758095Y-36139523D01*
X45012380Y-38838095D02*
X45012380Y-39314285D01*
X45488571Y-39361904D01*
X45440952Y-39314285D01*
X45393333Y-39219047D01*
X45393333Y-38980952D01*
X45440952Y-38885714D01*
X45488571Y-38838095D01*
X45583809Y-38790476D01*
X45821904Y-38790476D01*
X45917142Y-38838095D01*
X45964761Y-38885714D01*
X46012380Y-38980952D01*
X46012380Y-39219047D01*
X45964761Y-39314285D01*
X45917142Y-39361904D01*
X46012380Y-38361904D02*
X45012380Y-38361904D01*
X46012380Y-37790476D02*
X45440952Y-38219047D01*
X45012380Y-37790476D02*
X45583809Y-38361904D01*
X46012380Y-36838095D02*
X46012380Y-37409523D01*
X46012380Y-37123809D02*
X45012380Y-37123809D01*
X45155238Y-37219047D01*
X45250476Y-37314285D01*
X45298095Y-37409523D01*
%LPC*%
D16*
X58420000Y-57150000D03*
X58420000Y-54610000D03*
X58420000Y-52070000D03*
X58420000Y-49530000D03*
X58420000Y-46990000D03*
X58420000Y-44450000D03*
X58420000Y-41910000D03*
X58420000Y-39370000D03*
G36*
G01*
X57995000Y-63225000D02*
X57995000Y-63775000D01*
G75*
G02*
X57795000Y-63975000I-200000J0D01*
G01*
X57395000Y-63975000D01*
G75*
G02*
X57195000Y-63775000I0J200000D01*
G01*
X57195000Y-63225000D01*
G75*
G02*
X57395000Y-63025000I200000J0D01*
G01*
X57795000Y-63025000D01*
G75*
G02*
X57995000Y-63225000I0J-200000D01*
G01*
G37*
G36*
G01*
X59645000Y-63225000D02*
X59645000Y-63775000D01*
G75*
G02*
X59445000Y-63975000I-200000J0D01*
G01*
X59045000Y-63975000D01*
G75*
G02*
X58845000Y-63775000I0J200000D01*
G01*
X58845000Y-63225000D01*
G75*
G02*
X59045000Y-63025000I200000J0D01*
G01*
X59445000Y-63025000D01*
G75*
G02*
X59645000Y-63225000I0J-200000D01*
G01*
G37*
G36*
G01*
X58845000Y-61235000D02*
X58845000Y-60685000D01*
G75*
G02*
X59045000Y-60485000I200000J0D01*
G01*
X59445000Y-60485000D01*
G75*
G02*
X59645000Y-60685000I0J-200000D01*
G01*
X59645000Y-61235000D01*
G75*
G02*
X59445000Y-61435000I-200000J0D01*
G01*
X59045000Y-61435000D01*
G75*
G02*
X58845000Y-61235000I0J200000D01*
G01*
G37*
G36*
G01*
X57195000Y-61235000D02*
X57195000Y-60685000D01*
G75*
G02*
X57395000Y-60485000I200000J0D01*
G01*
X57795000Y-60485000D01*
G75*
G02*
X57995000Y-60685000I0J-200000D01*
G01*
X57995000Y-61235000D01*
G75*
G02*
X57795000Y-61435000I-200000J0D01*
G01*
X57395000Y-61435000D01*
G75*
G02*
X57195000Y-61235000I0J200000D01*
G01*
G37*
D17*
X67310000Y-43180000D03*
D18*
X53360000Y-33020000D03*
X50810000Y-33020000D03*
D19*
X48260000Y-33020000D03*
D18*
X25420000Y-33020000D03*
X22870000Y-33020000D03*
D19*
X20320000Y-33020000D03*
D17*
X67310000Y-52070000D03*
X67310000Y-60960000D03*
X67310000Y-72390000D03*
X55880000Y-72390000D03*
X44450000Y-72390000D03*
X33020000Y-72390000D03*
X21590000Y-72390000D03*
X68580000Y-21590000D03*
X57150000Y-21590000D03*
X45720000Y-21590000D03*
X34290000Y-21590000D03*
X22860000Y-21590000D03*
D16*
X52070000Y-55880000D03*
X52070000Y-53340000D03*
X52070000Y-50800000D03*
X52070000Y-48260000D03*
X52070000Y-45720000D03*
X52070000Y-58420000D03*
X52070000Y-43180000D03*
X49530000Y-58420000D03*
X49530000Y-43180000D03*
X46990000Y-58420000D03*
X46990000Y-43180000D03*
X44450000Y-58420000D03*
X44450000Y-43180000D03*
X41910000Y-58420000D03*
X41910000Y-43180000D03*
X39370000Y-58420000D03*
X39370000Y-43180000D03*
X36830000Y-58420000D03*
X36830000Y-43180000D03*
X34290000Y-58420000D03*
X34290000Y-43180000D03*
X31750000Y-58420000D03*
X31750000Y-43180000D03*
X29210000Y-58420000D03*
X29210000Y-43180000D03*
X26670000Y-58420000D03*
X26670000Y-43180000D03*
X24130000Y-58420000D03*
X24130000Y-43180000D03*
X21590000Y-58420000D03*
X21590000Y-43180000D03*
X19050000Y-58420000D03*
X19050000Y-43180000D03*
D18*
X67330000Y-33020000D03*
X64780000Y-33020000D03*
D19*
X62230000Y-33020000D03*
D18*
X39390000Y-33020000D03*
X36840000Y-33020000D03*
D19*
X34290000Y-33020000D03*
G36*
G01*
X44725000Y-36405000D02*
X44175000Y-36405000D01*
G75*
G02*
X43975000Y-36205000I0J200000D01*
G01*
X43975000Y-35805000D01*
G75*
G02*
X44175000Y-35605000I200000J0D01*
G01*
X44725000Y-35605000D01*
G75*
G02*
X44925000Y-35805000I0J-200000D01*
G01*
X44925000Y-36205000D01*
G75*
G02*
X44725000Y-36405000I-200000J0D01*
G01*
G37*
G36*
G01*
X44725000Y-38055000D02*
X44175000Y-38055000D01*
G75*
G02*
X43975000Y-37855000I0J200000D01*
G01*
X43975000Y-37455000D01*
G75*
G02*
X44175000Y-37255000I200000J0D01*
G01*
X44725000Y-37255000D01*
G75*
G02*
X44925000Y-37455000I0J-200000D01*
G01*
X44925000Y-37855000D01*
G75*
G02*
X44725000Y-38055000I-200000J0D01*
G01*
G37*
G36*
G01*
X47265000Y-37675000D02*
X46715000Y-37675000D01*
G75*
G02*
X46515000Y-37475000I0J200000D01*
G01*
X46515000Y-37075000D01*
G75*
G02*
X46715000Y-36875000I200000J0D01*
G01*
X47265000Y-36875000D01*
G75*
G02*
X47465000Y-37075000I0J-200000D01*
G01*
X47465000Y-37475000D01*
G75*
G02*
X47265000Y-37675000I-200000J0D01*
G01*
G37*
G36*
G01*
X47265000Y-39325000D02*
X46715000Y-39325000D01*
G75*
G02*
X46515000Y-39125000I0J200000D01*
G01*
X46515000Y-38725000D01*
G75*
G02*
X46715000Y-38525000I200000J0D01*
G01*
X47265000Y-38525000D01*
G75*
G02*
X47465000Y-38725000I0J-200000D01*
G01*
X47465000Y-39125000D01*
G75*
G02*
X47265000Y-39325000I-200000J0D01*
G01*
G37*
M02*
