M48
; DRILL file {KiCad (5.1.10)-1} date 02/18/22 16:50:50
; FORMAT={-:-/ absolute / metric / decimal}
; #@! TF.CreationDate,2022-02-18T16:50:50-06:00
; #@! TF.GenerationSoftware,Kicad,Pcbnew,(5.1.10)-1
; #@! TF.FileFunction,Plated,1,4,PTH
FMAT,2
METRIC
T1C0.900
T2C1.020
T3C1.320
T4C2.540
%
G90
G05
T1
X58.42Y-39.37
X58.42Y-41.91
X58.42Y-44.45
X58.42Y-46.99
X58.42Y-49.53
X58.42Y-52.07
X58.42Y-54.61
X58.42Y-57.15
T2
X19.05Y-43.18
X19.05Y-58.42
X21.59Y-43.18
X21.59Y-58.42
X24.13Y-43.18
X24.13Y-58.42
X26.67Y-43.18
X26.67Y-58.42
X29.21Y-43.18
X29.21Y-58.42
X31.75Y-43.18
X31.75Y-58.42
X34.29Y-43.18
X34.29Y-58.42
X36.83Y-43.18
X36.83Y-58.42
X39.37Y-43.18
X39.37Y-58.42
X41.91Y-43.18
X41.91Y-58.42
X44.45Y-43.18
X44.45Y-58.42
X46.99Y-43.18
X46.99Y-58.42
X49.53Y-43.18
X49.53Y-58.42
X52.07Y-43.18
X52.07Y-45.72
X52.07Y-48.26
X52.07Y-50.8
X52.07Y-53.34
X52.07Y-55.88
X52.07Y-58.42
T3
X20.32Y-33.02
X22.87Y-33.02
X25.42Y-33.02
X34.29Y-33.02
X36.84Y-33.02
X39.39Y-33.02
X48.26Y-33.02
X50.81Y-33.02
X53.36Y-33.02
X62.23Y-33.02
X64.78Y-33.02
X67.33Y-33.02
T4
X21.59Y-72.39
X22.86Y-21.59
X33.02Y-72.39
X34.29Y-21.59
X44.45Y-72.39
X45.72Y-21.59
X55.88Y-72.39
X57.15Y-21.59
X67.31Y-43.18
X67.31Y-52.07
X67.31Y-60.96
X67.31Y-72.39
X68.58Y-21.59
T0
M30
