G04 #@! TF.GenerationSoftware,KiCad,Pcbnew,(5.1.10)-1*
G04 #@! TF.CreationDate,2022-02-18T16:50:56-06:00*
G04 #@! TF.ProjectId,MainBoard,4d61696e-426f-4617-9264-2e6b69636164,rev?*
G04 #@! TF.SameCoordinates,Original*
G04 #@! TF.FileFunction,Copper,L1,Top*
G04 #@! TF.FilePolarity,Positive*
%FSLAX46Y46*%
G04 Gerber Fmt 4.6, Leading zero omitted, Abs format (unit mm)*
G04 Created by KiCad (PCBNEW (5.1.10)-1) date 2022-02-18 16:50:56*
%MOMM*%
%LPD*%
G01*
G04 APERTURE LIST*
G04 #@! TA.AperFunction,ComponentPad*
%ADD10C,2.000000*%
G04 #@! TD*
G04 #@! TA.AperFunction,ComponentPad*
%ADD11C,7.620000*%
G04 #@! TD*
G04 #@! TA.AperFunction,ComponentPad*
%ADD12C,1.980000*%
G04 #@! TD*
G04 #@! TA.AperFunction,ComponentPad*
%ADD13R,1.980000X1.980000*%
G04 #@! TD*
G04 #@! TA.AperFunction,Conductor*
%ADD14C,1.000000*%
G04 #@! TD*
G04 #@! TA.AperFunction,Conductor*
%ADD15C,3.000000*%
G04 #@! TD*
G04 #@! TA.AperFunction,Conductor*
%ADD16C,2.000000*%
G04 #@! TD*
G04 APERTURE END LIST*
D10*
X58420000Y-57150000D03*
X58420000Y-54610000D03*
X58420000Y-52070000D03*
X58420000Y-49530000D03*
X58420000Y-46990000D03*
X58420000Y-44450000D03*
X58420000Y-41910000D03*
X58420000Y-39370000D03*
G04 #@! TA.AperFunction,SMDPad,CuDef*
G36*
G01*
X57995000Y-63225000D02*
X57995000Y-63775000D01*
G75*
G02*
X57795000Y-63975000I-200000J0D01*
G01*
X57395000Y-63975000D01*
G75*
G02*
X57195000Y-63775000I0J200000D01*
G01*
X57195000Y-63225000D01*
G75*
G02*
X57395000Y-63025000I200000J0D01*
G01*
X57795000Y-63025000D01*
G75*
G02*
X57995000Y-63225000I0J-200000D01*
G01*
G37*
G04 #@! TD.AperFunction*
G04 #@! TA.AperFunction,SMDPad,CuDef*
G36*
G01*
X59645000Y-63225000D02*
X59645000Y-63775000D01*
G75*
G02*
X59445000Y-63975000I-200000J0D01*
G01*
X59045000Y-63975000D01*
G75*
G02*
X58845000Y-63775000I0J200000D01*
G01*
X58845000Y-63225000D01*
G75*
G02*
X59045000Y-63025000I200000J0D01*
G01*
X59445000Y-63025000D01*
G75*
G02*
X59645000Y-63225000I0J-200000D01*
G01*
G37*
G04 #@! TD.AperFunction*
G04 #@! TA.AperFunction,SMDPad,CuDef*
G36*
G01*
X58845000Y-61235000D02*
X58845000Y-60685000D01*
G75*
G02*
X59045000Y-60485000I200000J0D01*
G01*
X59445000Y-60485000D01*
G75*
G02*
X59645000Y-60685000I0J-200000D01*
G01*
X59645000Y-61235000D01*
G75*
G02*
X59445000Y-61435000I-200000J0D01*
G01*
X59045000Y-61435000D01*
G75*
G02*
X58845000Y-61235000I0J200000D01*
G01*
G37*
G04 #@! TD.AperFunction*
G04 #@! TA.AperFunction,SMDPad,CuDef*
G36*
G01*
X57195000Y-61235000D02*
X57195000Y-60685000D01*
G75*
G02*
X57395000Y-60485000I200000J0D01*
G01*
X57795000Y-60485000D01*
G75*
G02*
X57995000Y-60685000I0J-200000D01*
G01*
X57995000Y-61235000D01*
G75*
G02*
X57795000Y-61435000I-200000J0D01*
G01*
X57395000Y-61435000D01*
G75*
G02*
X57195000Y-61235000I0J200000D01*
G01*
G37*
G04 #@! TD.AperFunction*
D11*
X67310000Y-43180000D03*
D12*
X53360000Y-33020000D03*
X50810000Y-33020000D03*
D13*
X48260000Y-33020000D03*
D12*
X25420000Y-33020000D03*
X22870000Y-33020000D03*
D13*
X20320000Y-33020000D03*
D11*
X67310000Y-52070000D03*
X67310000Y-60960000D03*
X67310000Y-72390000D03*
X55880000Y-72390000D03*
X44450000Y-72390000D03*
X33020000Y-72390000D03*
X21590000Y-72390000D03*
X68580000Y-21590000D03*
X57150000Y-21590000D03*
X45720000Y-21590000D03*
X34290000Y-21590000D03*
X22860000Y-21590000D03*
D10*
X52070000Y-55880000D03*
X52070000Y-53340000D03*
X52070000Y-50800000D03*
X52070000Y-48260000D03*
X52070000Y-45720000D03*
X52070000Y-58420000D03*
X52070000Y-43180000D03*
X49530000Y-58420000D03*
X49530000Y-43180000D03*
X46990000Y-58420000D03*
X46990000Y-43180000D03*
X44450000Y-58420000D03*
X44450000Y-43180000D03*
X41910000Y-58420000D03*
X41910000Y-43180000D03*
X39370000Y-58420000D03*
X39370000Y-43180000D03*
X36830000Y-58420000D03*
X36830000Y-43180000D03*
X34290000Y-58420000D03*
X34290000Y-43180000D03*
X31750000Y-58420000D03*
X31750000Y-43180000D03*
X29210000Y-58420000D03*
X29210000Y-43180000D03*
X26670000Y-58420000D03*
X26670000Y-43180000D03*
X24130000Y-58420000D03*
X24130000Y-43180000D03*
X21590000Y-58420000D03*
X21590000Y-43180000D03*
X19050000Y-58420000D03*
X19050000Y-43180000D03*
D12*
X67330000Y-33020000D03*
X64780000Y-33020000D03*
D13*
X62230000Y-33020000D03*
D12*
X39390000Y-33020000D03*
X36840000Y-33020000D03*
D13*
X34290000Y-33020000D03*
G04 #@! TA.AperFunction,SMDPad,CuDef*
G36*
G01*
X44725000Y-36405000D02*
X44175000Y-36405000D01*
G75*
G02*
X43975000Y-36205000I0J200000D01*
G01*
X43975000Y-35805000D01*
G75*
G02*
X44175000Y-35605000I200000J0D01*
G01*
X44725000Y-35605000D01*
G75*
G02*
X44925000Y-35805000I0J-200000D01*
G01*
X44925000Y-36205000D01*
G75*
G02*
X44725000Y-36405000I-200000J0D01*
G01*
G37*
G04 #@! TD.AperFunction*
G04 #@! TA.AperFunction,SMDPad,CuDef*
G36*
G01*
X44725000Y-38055000D02*
X44175000Y-38055000D01*
G75*
G02*
X43975000Y-37855000I0J200000D01*
G01*
X43975000Y-37455000D01*
G75*
G02*
X44175000Y-37255000I200000J0D01*
G01*
X44725000Y-37255000D01*
G75*
G02*
X44925000Y-37455000I0J-200000D01*
G01*
X44925000Y-37855000D01*
G75*
G02*
X44725000Y-38055000I-200000J0D01*
G01*
G37*
G04 #@! TD.AperFunction*
G04 #@! TA.AperFunction,SMDPad,CuDef*
G36*
G01*
X47265000Y-37675000D02*
X46715000Y-37675000D01*
G75*
G02*
X46515000Y-37475000I0J200000D01*
G01*
X46515000Y-37075000D01*
G75*
G02*
X46715000Y-36875000I200000J0D01*
G01*
X47265000Y-36875000D01*
G75*
G02*
X47465000Y-37075000I0J-200000D01*
G01*
X47465000Y-37475000D01*
G75*
G02*
X47265000Y-37675000I-200000J0D01*
G01*
G37*
G04 #@! TD.AperFunction*
G04 #@! TA.AperFunction,SMDPad,CuDef*
G36*
G01*
X47265000Y-39325000D02*
X46715000Y-39325000D01*
G75*
G02*
X46515000Y-39125000I0J200000D01*
G01*
X46515000Y-38725000D01*
G75*
G02*
X46715000Y-38525000I200000J0D01*
G01*
X47265000Y-38525000D01*
G75*
G02*
X47465000Y-38725000I0J-200000D01*
G01*
X47465000Y-39125000D01*
G75*
G02*
X47265000Y-39325000I-200000J0D01*
G01*
G37*
G04 #@! TD.AperFunction*
D14*
X67310000Y-60960000D02*
X66040000Y-60960000D01*
X57150000Y-60960000D02*
X57150000Y-62230000D01*
X57150000Y-62230000D02*
X57150000Y-63500000D01*
X67310000Y-60960000D02*
X59690000Y-60960000D01*
X57150000Y-62230000D02*
X55880000Y-62230000D01*
X55880000Y-62230000D02*
X52070000Y-58420000D01*
X44450000Y-43180000D02*
X44450000Y-38100000D01*
X46990000Y-43180000D02*
X46990000Y-39370000D01*
X55880000Y-46990000D02*
X58420000Y-46990000D01*
X54610000Y-45720000D02*
X55880000Y-46990000D01*
X54610000Y-40640000D02*
X54610000Y-45720000D01*
X53340000Y-39370000D02*
X54610000Y-40640000D01*
X46990000Y-39370000D02*
X53340000Y-39370000D01*
X40640000Y-31750000D02*
X44450000Y-35560000D01*
X46990000Y-35560000D02*
X46990000Y-36830000D01*
X44450000Y-35560000D02*
X46990000Y-35560000D01*
X58420000Y-46990000D02*
X55880000Y-46990000D01*
X46990000Y-35560000D02*
X54610000Y-35560000D01*
X54610000Y-35560000D02*
X58420000Y-39370000D01*
X39370000Y-43180000D02*
X39370000Y-48260000D01*
X60960000Y-66040000D02*
X67310000Y-72390000D01*
X19050000Y-66040000D02*
X60960000Y-66040000D01*
X15240000Y-62230000D02*
X19050000Y-66040000D01*
X15240000Y-55880000D02*
X15240000Y-62230000D01*
X21590000Y-49530000D02*
X15240000Y-55880000D01*
X38100000Y-49530000D02*
X21590000Y-49530000D01*
X39370000Y-48260000D02*
X38100000Y-49530000D01*
D15*
X59690000Y-21590000D02*
X57150000Y-21590000D01*
X59690000Y-25400000D02*
X59690000Y-21590000D01*
X57150000Y-27940000D02*
X59690000Y-25400000D01*
X30480000Y-27940000D02*
X44450000Y-27940000D01*
D16*
X25420000Y-33000000D02*
X30480000Y-27940000D01*
X25420000Y-33020000D02*
X25420000Y-33000000D01*
D15*
X57150000Y-27940000D02*
X44450000Y-27940000D01*
D16*
X39390000Y-33000000D02*
X44450000Y-27940000D01*
X39390000Y-33000000D02*
X39390000Y-33020000D01*
D15*
X67310000Y-27940000D02*
X57150000Y-27940000D01*
X67330000Y-27960000D02*
X67310000Y-27940000D01*
D16*
X53360000Y-33020000D02*
X53360000Y-31730000D01*
X53360000Y-31730000D02*
X57150000Y-27940000D01*
X67330000Y-33020000D02*
X67330000Y-27960000D01*
X67330000Y-27960000D02*
X67310000Y-27940000D01*
M02*
