G04 #@! TF.GenerationSoftware,KiCad,Pcbnew,(5.1.10)-1*
G04 #@! TF.CreationDate,2022-02-18T16:50:56-06:00*
G04 #@! TF.ProjectId,MainBoard,4d61696e-426f-4617-9264-2e6b69636164,rev?*
G04 #@! TF.SameCoordinates,Original*
G04 #@! TF.FileFunction,Paste,Top*
G04 #@! TF.FilePolarity,Positive*
%FSLAX46Y46*%
G04 Gerber Fmt 4.6, Leading zero omitted, Abs format (unit mm)*
G04 Created by KiCad (PCBNEW (5.1.10)-1) date 2022-02-18 16:50:56*
%MOMM*%
%LPD*%
G01*
G04 APERTURE LIST*
G04 APERTURE END LIST*
G36*
G01*
X57995000Y-63225000D02*
X57995000Y-63775000D01*
G75*
G02*
X57795000Y-63975000I-200000J0D01*
G01*
X57395000Y-63975000D01*
G75*
G02*
X57195000Y-63775000I0J200000D01*
G01*
X57195000Y-63225000D01*
G75*
G02*
X57395000Y-63025000I200000J0D01*
G01*
X57795000Y-63025000D01*
G75*
G02*
X57995000Y-63225000I0J-200000D01*
G01*
G37*
G36*
G01*
X59645000Y-63225000D02*
X59645000Y-63775000D01*
G75*
G02*
X59445000Y-63975000I-200000J0D01*
G01*
X59045000Y-63975000D01*
G75*
G02*
X58845000Y-63775000I0J200000D01*
G01*
X58845000Y-63225000D01*
G75*
G02*
X59045000Y-63025000I200000J0D01*
G01*
X59445000Y-63025000D01*
G75*
G02*
X59645000Y-63225000I0J-200000D01*
G01*
G37*
G36*
G01*
X58845000Y-61235000D02*
X58845000Y-60685000D01*
G75*
G02*
X59045000Y-60485000I200000J0D01*
G01*
X59445000Y-60485000D01*
G75*
G02*
X59645000Y-60685000I0J-200000D01*
G01*
X59645000Y-61235000D01*
G75*
G02*
X59445000Y-61435000I-200000J0D01*
G01*
X59045000Y-61435000D01*
G75*
G02*
X58845000Y-61235000I0J200000D01*
G01*
G37*
G36*
G01*
X57195000Y-61235000D02*
X57195000Y-60685000D01*
G75*
G02*
X57395000Y-60485000I200000J0D01*
G01*
X57795000Y-60485000D01*
G75*
G02*
X57995000Y-60685000I0J-200000D01*
G01*
X57995000Y-61235000D01*
G75*
G02*
X57795000Y-61435000I-200000J0D01*
G01*
X57395000Y-61435000D01*
G75*
G02*
X57195000Y-61235000I0J200000D01*
G01*
G37*
G36*
G01*
X44725000Y-36405000D02*
X44175000Y-36405000D01*
G75*
G02*
X43975000Y-36205000I0J200000D01*
G01*
X43975000Y-35805000D01*
G75*
G02*
X44175000Y-35605000I200000J0D01*
G01*
X44725000Y-35605000D01*
G75*
G02*
X44925000Y-35805000I0J-200000D01*
G01*
X44925000Y-36205000D01*
G75*
G02*
X44725000Y-36405000I-200000J0D01*
G01*
G37*
G36*
G01*
X44725000Y-38055000D02*
X44175000Y-38055000D01*
G75*
G02*
X43975000Y-37855000I0J200000D01*
G01*
X43975000Y-37455000D01*
G75*
G02*
X44175000Y-37255000I200000J0D01*
G01*
X44725000Y-37255000D01*
G75*
G02*
X44925000Y-37455000I0J-200000D01*
G01*
X44925000Y-37855000D01*
G75*
G02*
X44725000Y-38055000I-200000J0D01*
G01*
G37*
G36*
G01*
X47265000Y-37675000D02*
X46715000Y-37675000D01*
G75*
G02*
X46515000Y-37475000I0J200000D01*
G01*
X46515000Y-37075000D01*
G75*
G02*
X46715000Y-36875000I200000J0D01*
G01*
X47265000Y-36875000D01*
G75*
G02*
X47465000Y-37075000I0J-200000D01*
G01*
X47465000Y-37475000D01*
G75*
G02*
X47265000Y-37675000I-200000J0D01*
G01*
G37*
G36*
G01*
X47265000Y-39325000D02*
X46715000Y-39325000D01*
G75*
G02*
X46515000Y-39125000I0J200000D01*
G01*
X46515000Y-38725000D01*
G75*
G02*
X46715000Y-38525000I200000J0D01*
G01*
X47265000Y-38525000D01*
G75*
G02*
X47465000Y-38725000I0J-200000D01*
G01*
X47465000Y-39125000D01*
G75*
G02*
X47265000Y-39325000I-200000J0D01*
G01*
G37*
M02*
